<svg width="102" height="102" fill="none" xmlns="http://www.w3.org/2000/svg"><g clip-path="url(#a)" fill="#001E54"><path d="m76.728 68.155-3.304-.48-1.477-2.993c-.766-1.552-2.981-1.552-3.748 0l-1.477 2.993-3.303.48c-1.713.249-2.398 2.355-1.158 3.564l2.39 2.33-.564 3.29c-.293 1.706 1.499 3.008 3.031 2.203l2.955-1.553 2.955 1.553c1.531.805 3.324-.496 3.032-2.202l-.564-3.29 2.39-2.33c1.24-1.209.555-3.316-1.158-3.565ZM73.07 72.24a2.09 2.09 0 0 0-.601 1.85l.336 1.96-1.76-.926a2.09 2.09 0 0 0-1.945 0l-1.76.926.335-1.96a2.088 2.088 0 0 0-.6-1.85l-1.425-1.388 1.97-.286a2.09 2.09 0 0 0 1.572-1.144l.88-1.783.881 1.784a2.09 2.09 0 0 0 1.573 1.143l1.969.286-1.425 1.388Z"/><path d="m90.73 93.327-7.157-12.464a16.17 16.17 0 0 0 2.31-5.4 1.494 1.494 0 1 0-2.917-.652c-1.345 6.02-6.806 10.32-12.893 10.32-7.309 0-13.216-5.948-13.216-13.217 0-7.287 5.929-13.215 13.216-13.215 6 0 11.258 4.054 12.78 9.845a1.495 1.495 0 0 0 2.891-.76 16.134 16.134 0 0 0-1.653-4V15.301a3.932 3.932 0 0 0-3.928-3.928h-18.53A22.295 22.295 0 0 0 42.145 0a22.296 22.296 0 0 0-19.489 11.373H4.127A3.932 3.932 0 0 0 .2 15.301V72.48a3.932 3.932 0 0 0 3.928 3.927h50.38c.463 1.6 1.164 3.1 2.066 4.456l-7.158 12.464c-.806 1.402.326 3.127 1.93 2.949l5.626-.621 2.299 5.171c.656 1.476 2.713 1.586 3.52.182l7.283-12.682 7.283 12.682c.805 1.402 2.862 1.296 3.52-.182l2.3-5.171 5.624.62c1.61.176 2.735-1.548 1.93-2.948ZM42.146 2.988c6.46 0 12.378 3.158 15.97 8.385H26.175a19.313 19.313 0 0 1 15.97-8.385ZM3.187 15.301c0-.51.43-.94.94-.94h16.298v.454a5.325 5.325 0 0 0 5.32 5.319h12.914a1.494 1.494 0 1 0 0-2.989H25.744a2.333 2.333 0 0 1-2.33-2.33v-.453h37.462v.453a2.333 2.333 0 0 1-2.33 2.33H45.631a1.495 1.495 0 1 0 0 2.989h12.913a5.326 5.326 0 0 0 5.32-5.32v-.452h16.298c.509 0 .94.43.94.939v9.486c0 11.039-8.236 20.265-19.021 21.664v-2.698a2.723 2.723 0 0 0-2.72-2.72H55.73c-1.5 0-2.719 1.22-2.719 2.72v2.882H31.28v-2.882a2.722 2.722 0 0 0-2.72-2.72h-3.632c-1.5 0-2.72 1.22-2.72 2.72v2.698c-10.786-1.398-19.02-10.624-19.02-21.664v-9.486Zm55.906 28.72v8.216h-3.095v-8.215h3.095Zm-30.802 4.112v4.104h-3.095v-8.215h3.095v4.111Zm25.577 23.781c0 .45.024.997.07 1.505H4.127a.952.952 0 0 1-.94-.94V36.57c3.76 6.922 10.744 11.943 19.021 12.89v3.047a2.723 2.723 0 0 0 2.72 2.719h3.633c1.5 0 2.719-1.22 2.719-2.72v-2.882h21.73v2.883a2.723 2.723 0 0 0 2.72 2.719h3.632c1.5 0 2.719-1.22 2.719-2.72V49.46c8.284-.947 15.266-5.976 19.02-12.89v23.463c-3-2.799-6.94-4.322-11.028-4.322-8.935 0-16.205 7.269-16.205 16.204Zm7.323 25.877-1.79-4.026a1.97 1.97 0 0 0-2.022-1.162l-4.38.484 5.592-9.737a16.18 16.18 0 0 0 8.332 4.462L61.19 97.79Zm21.576-5.188a1.972 1.972 0 0 0-2.022 1.162l-1.79 4.026-5.731-9.98a16.148 16.148 0 0 0 8.331-4.462l5.591 9.737-4.38-.483Z"/></g><defs><clipPath id="a"><path fill="#fff" d="M0 0h102v102H0z"/></clipPath></defs></svg>