<svg width="102" height="102" fill="none" xmlns="http://www.w3.org/2000/svg"><path d="M51 49.406a1.594 1.594 0 1 0 0-3.187 1.594 1.594 0 0 0 0 3.187Z" fill="#001E54"/><path d="M51 55.781c4.394 0 7.969-3.575 7.969-7.968 0-1.621-.493-3.129-1.328-4.388l4.909-4.909a7.92 7.92 0 0 0 4.388 1.328c4.394 0 7.968-3.575 7.968-7.969s-3.575-7.969-7.969-7.969c-4.393 0-7.968 3.575-7.968 7.969 0 1.62.492 3.127 1.327 4.388l-4.908 4.908A7.919 7.919 0 0 0 51 39.844c-3.847 0-7.067 2.743-7.808 6.375H39.55c-.66-1.85-2.412-3.188-4.487-3.188a4.787 4.787 0 0 0-4.782 4.782 4.787 4.787 0 0 0 4.782 4.78c2.075 0 3.828-1.336 4.487-3.187h3.642c.741 3.632 3.96 6.375 7.808 6.375Zm15.938-28.687a4.787 4.787 0 0 1 4.78 4.781 4.787 4.787 0 0 1-4.78 4.781 4.787 4.787 0 0 1-4.782-4.781 4.787 4.787 0 0 1 4.782-4.781ZM51 43.03a4.787 4.787 0 0 1 4.781 4.782A4.787 4.787 0 0 1 51 52.593a4.787 4.787 0 0 1-4.781-4.78A4.787 4.787 0 0 1 51 43.03Zm-15.938 6.375c-.88 0-1.593-.715-1.593-1.593 0-.879.714-1.594 1.593-1.594.88 0 1.594.715 1.594 1.593 0 .879-.714 1.594-1.593 1.594Z" fill="#001E54"/><path d="M66.938 33.469a1.594 1.594 0 1 0 0-3.188 1.594 1.594 0 0 0 0 3.188ZM3.498 74.906h4.47v12.75h3.188V71.72H9.251l5.093-8.15 5.092 8.15H17.53v28.687h3.188v-25.5h4.47l-10.845-17.35-10.846 17.35Z" fill="#001E54"/><path d="M7.969 90.844h3.187v9.562H7.97v-9.562ZM81.281 20.719h3.188v-6.375h-1.905l5.092-8.15 5.092 8.15h-1.904V43.03h3.187v-25.5h4.47L87.656.181 76.81 17.53h4.471v3.188Z" fill="#001E54"/><path d="M98.836 66.92a4.527 4.527 0 0 1-3.456-2.75 4.528 4.528 0 0 1 .502-4.385l.924-1.294-8.67-8.672-1.296.926c-1.1.784-2.453 1-3.732.679a31.329 31.329 0 0 0 1.335-8.393h.026V23.906H81.28v4.756c-5.068-10.347-15.678-17.506-27.956-17.506h-4.65c-1.863 0-3.68.195-5.454.509L35.177 3.62l-2.325 2.324c-.42.42-1.049.538-1.65.293a1.464 1.464 0 0 1-.92-1.356V1.594h-12.75v3.288c0 .596-.363 1.128-.962 1.373-.56.232-1.19.109-1.608-.31L12.637 3.62 3.62 12.635l2.324 2.327c.42.42.542 1.05.295 1.65-.23.558-.762.92-1.358.92H1.594v12.75h3.288c.594 0 1.126.361 1.373.962a1.469 1.469 0 0 1-.312 1.608l-2.322 2.325 9.014 9.014 2.325-2.323c.421-.42 1.05-.54 1.65-.293.56.227.921.76.921 1.356h.023c.23 11.617 6.763 22.01 17.193 27.224l1.91.955v3.796a3.19 3.19 0 0 0 3.187 3.188h6.375v1.351l1.576.262a4.494 4.494 0 0 1 2.717 1.574H39.844a3.19 3.19 0 0 0-3.188 3.188v1.594c0 7.908 6.434 14.343 14.344 14.343 4.507 0 8.531-2.094 11.163-5.356a4.569 4.569 0 0 1 2.019.333 4.502 4.502 0 0 1 2.736 3.445l.265 1.578h12.264l.256-1.568a4.52 4.52 0 0 1 2.751-3.457 4.52 4.52 0 0 1 4.386.502l1.296.925 8.672-8.672-.923-1.291a4.536 4.536 0 0 1-.502-4.397 4.512 4.512 0 0 1 3.445-2.741l1.578-.262V67.181l-1.57-.261Zm-36.68 14.361h-.747c-.671-1-1.212-2.064-1.608-3.187h2.355a3.14 3.14 0 0 0 1.006-.179c1.758 3.859 5.642 6.554 10.15 6.554 6.15 0 11.157-5.005 11.157-11.156 0-4.944-3.167-9.117-7.622-10.588a31.02 31.02 0 0 0 2.056-2.625 14.304 14.304 0 0 1 8.753 13.212c0 7.909-6.434 14.344-14.344 14.344-2.873 0-5.608-.843-7.968-2.427v-.76a3.19 3.19 0 0 0-3.188-3.188Zm6.375-15.537a28.368 28.368 0 0 1-2.703 1.56l-.484.242V46.22h3.187v19.525Zm-3.187 5.366 1.91-.955a31.433 31.433 0 0 0 6.94-4.727c4.014.442 7.087 3.774 7.087 7.885 0 4.394-3.575 7.968-7.969 7.968s-7.968-3.575-7.968-7.969V71.11ZM12.709 39.61l-.072.072-4.507-4.509.07-.07c1.335-1.334 1.73-3.33.988-5.114a4.643 4.643 0 0 0-4.306-2.896h-.1v-6.375h.1c1.893 0 3.582-1.137 4.319-2.93A4.646 4.646 0 0 0 8.2 12.71l-.07-.072 4.507-4.509.072.07c1.334 1.334 3.326 1.725 5.114.988a4.64 4.64 0 0 0 2.896-4.304v-.1h6.375v.1c0 1.893 1.136 3.584 2.93 4.32a4.65 4.65 0 0 0 5.081-1l.072-.072 4.393 4.392a30.915 30.915 0 0 0-6.297 2.746 12.805 12.805 0 0 0-9.367-4.112c-7.03 0-12.75 5.72-12.75 12.75 0 4.906 2.845 9.322 7.187 11.437a30.502 30.502 0 0 0-.571 3.262 4.65 4.65 0 0 0-5.063 1.006Zm9.242-13.22c-.75-.595-1.232-1.495-1.232-2.485a3.19 3.19 0 0 1 3.187-3.187c.668 0 1.291.228 1.82.6a31.235 31.235 0 0 0-3.775 5.072Zm6.072-7.34a6.348 6.348 0 0 0-4.117-1.52 6.381 6.381 0 0 0-6.375 6.375c0 2.179 1.143 4.171 2.91 5.33a31.127 31.127 0 0 0-1.21 3c-2.973-1.673-4.887-4.841-4.887-8.33 0-5.273 4.289-9.562 9.562-9.562 2.482 0 4.855.994 6.624 2.695-.872.628-1.705 1.3-2.507 2.013Zm8.149 48.253c-.94-.47-1.836-1-2.703-1.56v-6.775h3.187v8.577l-.484-.242Zm-5.89-11.523v7.569c-6.012-5.224-9.563-12.81-9.563-21.05 0-15.415 12.541-27.956 27.956-27.956h4.65c15.415 0 27.956 12.541 27.956 27.956 0 8.24-3.55 15.826-9.562 21.05V43.031h-9.563v31.875h-6.375V58.97H46.22v15.937h-6.375V55.781H30.28Zm22.312 19.125h-3.188v-12.75h3.188v12.75Zm1.593 6.323c-.529-1.278-1.392-2.326-2.443-3.135h4.723a17.49 17.49 0 0 0 1.259 3.187h-3.523l-.016-.052ZM51 97.219c-6.15 0-11.156-5.005-11.156-11.156v-1.594h22.312v1.594c0 6.151-5.006 11.156-11.156 11.156Zm46.219-20.395a7.675 7.675 0 0 0-4.781 4.405 7.696 7.696 0 0 0 .264 6.504l-4.97 4.968a7.682 7.682 0 0 0-6.497-.267 7.686 7.686 0 0 0-4.41 4.783h-7.023a7.67 7.67 0 0 0-4.403-4.781 7.716 7.716 0 0 0-1.373-.408c.47-1.023.83-2.105 1.05-3.242a17.357 17.357 0 0 0 8.237 2.058c9.666 0 17.53-7.865 17.53-17.531 0-6.945-4.049-13.117-10.249-15.94.522-.943.995-1.914 1.416-2.911a7.68 7.68 0 0 0 5.723-.538l4.968 4.968a7.691 7.691 0 0 0-.267 6.5 7.692 7.692 0 0 0 4.785 4.41v7.021Z" fill="#001E54"/></svg>