<svg width="102" height="102" fill="none" xmlns="http://www.w3.org/2000/svg"><path d="M98.469 48.74c-3.681-3.03-9.117-2.897-12.644.318L73.848 59.972a9.106 9.106 0 0 0-7.397-3.766H53.772c-1.598 0-3.144-.274-4.596-.812-3.58-1.327-10.645-3.118-17.763-.179-1.355.56-2.707 1.397-4.02 2.493L14.994 68.065c-1.927-1.135-4.447-.893-6.099.76L3.23 74.49a5.024 5.024 0 0 0 0 7.11l18.915 18.915a5.034 5.034 0 0 0 7.11 0l5.664-5.667a5.031 5.031 0 0 0 0-7.109l-.2-.2 1.387-1.387c2.579-2.578 6.05-3.936 9.544-3.7 8.856.578 26.631.046 32.904-6.231l20.264-20.264a4.882 4.882 0 0 0-.348-7.216ZM32.666 92.597 27 98.26a1.848 1.848 0 0 1-2.605.002L5.482 79.347v-.002a1.839 1.839 0 0 1 0-2.602l5.666-5.665a1.842 1.842 0 0 1 2.603 0l18.915 18.915c.719.72.72 1.881 0 2.603Zm63.898-38.892L76.3 73.968c-5.459 5.459-22.854 5.798-30.444 5.304-4.4-.276-8.777 1.4-12.004 4.627l-1.387 1.387-15.014-15.121 11.984-10.011c1.063-.887 2.138-1.558 3.194-1.994 6.111-2.522 12.295-.944 15.438.222a16.355 16.355 0 0 0 5.705 1.01h12.68c3.34 0 5.97 2.721 5.943 5.976-.007.999-.84 1.813-1.858 1.813H42.039a1.593 1.593 0 1 0 0 3.186h28.497c2.763 0 5.026-2.233 5.045-4.976a9.042 9.042 0 0 0-.305-2.41l12.695-11.567c2.36-2.155 6.002-2.245 8.472-.21.776.638.825 1.795.12 2.5ZM51.152 32.398c.551.536.801 1.307.672 2.065l-.843 4.912c-.77 4.49 3.946 7.953 8.012 5.813l4.398-2.318a2.34 2.34 0 0 1 2.176 0l4.383 2.315c4.045 2.14 8.782-1.297 8.018-5.8l-.836-4.925a2.334 2.334 0 0 1 .672-2.06l3.548-3.46c3.272-3.192 1.465-8.753-3.057-9.411l-4.92-.718a2.332 2.332 0 0 1-1.754-1.277l-2.198-4.458c-2.024-4.105-7.871-4.099-9.895-.008l-2.213 4.47a2.33 2.33 0 0 1-1.752 1.272l-4.913.717c-4.523.66-6.329 6.228-3.05 9.415l3.552 3.456Zm-.041-9.718 4.91-.718a5.51 5.51 0 0 0 4.15-3.01l2.212-4.47c.856-1.73 3.324-1.732 4.18.004l2.2 4.458a5.516 5.516 0 0 0 4.152 3.02l4.92.717c1.914.282 2.678 2.625 1.292 3.977l-3.548 3.46a5.517 5.517 0 0 0-1.588 4.874l.835 4.925c.324 1.91-1.672 3.351-3.387 2.452l-4.383-2.315a5.51 5.51 0 0 0-5.15-.004l-4.399 2.319c-1.717.905-3.713-.549-3.385-2.456l.843-4.912a5.512 5.512 0 0 0-1.592-4.887l-3.551-3.456c-1.39-1.353-.626-3.696 1.289-3.978ZM64.473 5.497c.88 0 1.593-.712 1.593-1.593V1.609a1.593 1.593 0 1 0-3.187 0v2.295c0 .88.714 1.593 1.594 1.593ZM51.088 7.917a1.594 1.594 0 1 0 2.758-1.594L52.7 4.336A1.593 1.593 0 1 0 49.94 5.93l1.148 1.988ZM40.894 16.143l1.986 1.147a1.595 1.595 0 0 0 1.593-2.76l-1.986-1.147a1.592 1.592 0 1 0-1.593 2.76ZM38.166 29.509h2.294a1.593 1.593 0 1 0 0-3.187h-2.294a1.593 1.593 0 1 0 0 3.187ZM86.893 27.916c0 .88.713 1.593 1.593 1.593h2.294a1.593 1.593 0 1 0 0-3.187h-2.294c-.88 0-1.593.713-1.593 1.594ZM86.066 17.29l1.986-1.147a1.595 1.595 0 0 0-1.593-2.76l-1.987 1.147a1.595 1.595 0 0 0 1.594 2.76ZM75.683 8.5a1.594 1.594 0 0 0 2.176-.583l1.147-1.987a1.593 1.593 0 1 0-2.759-1.594L75.1 6.323c-.44.763-.18 1.737.583 2.177Z" fill="#001E54"/></svg>