<svg width="102" height="103" fill="none" xmlns="http://www.w3.org/2000/svg"><path d="M80.814 12.168a2.024 2.024 0 0 0-.482-2.803C71.716 3.238 61.574 0 51 0a50.305 50.305 0 0 0-19.143 3.751 2.019 2.019 0 0 0-1.098 2.62 1.985 1.985 0 0 0 2.595 1.11A46.37 46.37 0 0 1 51 4.022c9.748 0 19.097 2.985 27.038 8.632.349.247.749.367 1.145.367.626 0 1.243-.298 1.63-.854ZM102 51.5c0-10.293-2.998-20.228-8.669-28.732a1.98 1.98 0 0 0-2.765-.545 2.024 2.024 0 0 0-.54 2.792c5.227 7.838 7.99 16.996 7.99 26.485 0 10.09-3.066 19.657-8.88 27.77a7.46 7.46 0 0 0-3.121-.683c-4.175 0-7.57 3.43-7.57 7.644 0 4.216 3.395 7.645 7.57 7.645 4.174 0 7.57-3.43 7.57-7.645a7.65 7.65 0 0 0-1.376-4.386C98.619 72.995 102 62.536 102 51.5ZM86.015 89.853c-1.978 0-3.586-1.625-3.586-3.621 0-1.997 1.608-3.622 3.586-3.622 1.977 0 3.586 1.625 3.586 3.621 0 1.997-1.61 3.622-3.586 3.622ZM68.646 95.52A46.364 46.364 0 0 1 51 98.977c-25.924 0-47.016-21.298-47.016-47.477 0-10.09 3.067-19.657 8.88-27.77a7.46 7.46 0 0 0 3.121.683c4.175 0 7.57-3.43 7.57-7.645s-3.395-7.644-7.57-7.644c-4.174 0-7.57 3.43-7.57 7.644a7.65 7.65 0 0 0 1.376 4.387C3.381 30.005 0 40.464 0 51.5c0 13.756 5.305 26.689 14.937 36.416C24.57 97.643 37.377 103 51 103c6.619 0 13.06-1.262 19.143-3.751a2.019 2.019 0 0 0 1.098-2.62 1.986 1.986 0 0 0-2.595-1.11Zm-52.66-82.373c1.977 0 3.585 1.625 3.585 3.621 0 1.997-1.608 3.622-3.586 3.622-1.977 0-3.585-1.625-3.585-3.622 0-1.996 1.608-3.62 3.585-3.62Z" fill="#001E54"/><path d="M51 47.028c-4.207 0-7.629 3.456-7.629 7.703 0 1.761.581 3.432 1.652 4.79v6.007c0 3.327 2.681 6.035 5.977 6.035 3.295 0 5.976-2.708 5.976-6.035V59.52a7.692 7.692 0 0 0 1.653-4.789c0-4.247-3.423-7.703-7.63-7.703Zm2.576 10.306c-.374.377-.584.89-.584 1.423v6.77c0 1.11-.894 2.012-1.992 2.012a2.004 2.004 0 0 1-1.992-2.011v-6.771c0-.534-.21-1.046-.584-1.423a3.674 3.674 0 0 1-1.069-2.603c0-2.029 1.635-3.68 3.645-3.68s3.644 1.651 3.644 3.68c0 .984-.38 1.908-1.068 2.603Z" fill="#001E54"/><path d="M69.318 39.353V35.23c0-10.2-8.217-18.498-18.318-18.498-10.1 0-18.318 8.298-18.318 18.498v4.124a7.288 7.288 0 0 0-4.393 6.699v26.487c0 4.012 3.232 7.276 7.205 7.276h31.012c3.973 0 7.205-3.264 7.205-7.276V46.052a7.288 7.288 0 0 0-4.393-6.699ZM36.666 35.23c0-7.981 6.43-14.474 14.334-14.474s14.334 6.493 14.334 14.474v3.547h-4.179v-3.547c0-5.654-4.555-10.255-10.155-10.255s-10.156 4.6-10.156 10.255v3.547h-4.178v-3.547Zm8.163 3.547v-3.547c0-3.436 2.768-6.231 6.171-6.231 3.403 0 6.171 2.795 6.171 6.231v3.547H44.829Zm24.898 33.763c0 1.793-1.445 3.252-3.221 3.252H35.494c-1.776 0-3.22-1.459-3.22-3.252V46.052c0-1.794 1.444-3.253 3.22-3.253h31.012c1.776 0 3.22 1.46 3.22 3.253v26.487ZM86.015 18.886a1.995 1.995 0 0 0 1.992-2.01 1.996 1.996 0 0 0-1.992-2.012 1.995 1.995 0 0 0-1.993 2.012c0 .53.214 1.046.584 1.423.37.374.885.587 1.409.587Z" fill="#001E54"/></svg>