<svg width="102" height="102" fill="none" xmlns="http://www.w3.org/2000/svg"><path d="M28.688 97.219v-12.75c0-4.54-2.732-8.45-6.634-10.19a9.545 9.545 0 0 0 3.446-7.341c0-5.274-4.289-9.563-9.563-9.563-5.273 0-9.562 4.289-9.562 9.563a9.545 9.545 0 0 0 3.446 7.342c-3.902 1.739-6.633 5.648-6.633 10.189v12.75c0 .881.712 1.594 1.593 1.594h22.313c.881 0 1.593-.713 1.593-1.594Zm-12.75-18.022 1.47 3.678-1.47 3.678-1.472-3.678 1.472-3.678Zm0-5.885c-3.37 0-6.108-2.634-6.332-5.947 1.877-1.302 4.041-2.021 6.332-2.021 2.29 0 4.454.719 6.332 2.02-.225 3.314-2.963 5.948-6.332 5.948Zm0-12.75c2.059 0 3.872.997 5.039 2.515a14.223 14.223 0 0 0-5.04-.92c-1.748 0-3.444.318-5.039.92 1.167-1.518 2.98-2.514 5.04-2.514ZM25.5 95.626H6.375V84.469c0-4.123 3.159-7.484 7.177-7.89l-2.281 5.705c-.151.379-.151.803 0 1.182l3.188 7.969a1.592 1.592 0 0 0 2.96 0l3.187-7.969c.151-.379.151-.803 0-1.182l-2.281-5.704c4.016.404 7.175 3.766 7.175 7.889v11.156ZM39.844 98.813h22.312c.882 0 1.594-.713 1.594-1.594v-12.75c0-4.54-2.732-8.45-6.633-10.19a9.545 9.545 0 0 0 3.446-7.341c0-5.274-4.29-9.563-9.563-9.563-5.274 0-9.563 4.289-9.563 9.563a9.545 9.545 0 0 0 3.446 7.342c-3.901 1.739-6.633 5.648-6.633 10.189v12.75c0 .881.712 1.594 1.594 1.594ZM51 79.197l1.471 3.678L51 86.553l-1.471-3.678L51 79.197Zm0-5.885c-3.37 0-6.107-2.634-6.332-5.947 1.877-1.302 4.042-2.021 6.332-2.021s4.455.719 6.332 2.02c-.225 3.314-2.963 5.948-6.332 5.948Zm0-12.75c2.06 0 3.873.997 5.04 2.515a14.223 14.223 0 0 0-5.04-.92c-1.748 0-3.444.318-5.04.92 1.167-1.518 2.98-2.514 5.04-2.514ZM41.437 84.47c0-4.123 3.16-7.484 7.177-7.89l-2.28 5.705c-.152.379-.152.803 0 1.182l3.187 7.969a1.593 1.593 0 0 0 2.96 0l3.187-7.969c.151-.379.151-.803 0-1.182l-2.28-5.704c4.016.404 7.175 3.766 7.175 7.889v11.156H41.436V84.469ZM92.18 74.28a9.545 9.545 0 0 0 3.445-7.343c0-5.273-4.289-9.562-9.563-9.562-5.273 0-9.562 4.289-9.562 9.563a9.545 9.545 0 0 0 3.446 7.342c-3.902 1.739-6.633 5.648-6.633 10.189v12.75c0 .881.712 1.594 1.593 1.594H97.22c.881 0 1.594-.713 1.594-1.594v-12.75c0-4.54-2.732-8.45-6.634-10.19Zm-6.118 4.917 1.472 3.678-1.472 3.678-1.47-3.678 1.47-3.678Zm0-5.885c-3.369 0-6.107-2.634-6.331-5.947 1.877-1.302 4.041-2.021 6.332-2.021 2.29 0 4.454.719 6.331 2.02-.224 3.314-2.962 5.948-6.332 5.948Zm0-12.75c2.06 0 3.873.997 5.04 2.515a14.223 14.223 0 0 0-5.04-.92c-1.748 0-3.444.318-5.039.92 1.167-1.518 2.98-2.514 5.04-2.514Zm9.563 35.063H76.5V84.469c0-4.123 3.159-7.484 7.177-7.89l-2.281 5.705c-.151.379-.151.803 0 1.182l3.188 7.969a1.592 1.592 0 0 0 2.96 0l3.187-7.969c.151-.379.151-.803 0-1.182L88.45 76.58c4.016.404 7.175 3.766 7.175 7.889v11.156ZM43.031 28.688c0 4.393 3.575 7.968 7.969 7.968s7.969-3.575 7.969-7.968c0-4.394-3.575-7.97-7.969-7.97s-7.969 3.576-7.969 7.97Zm12.75 0A4.787 4.787 0 0 1 51 33.468a4.787 4.787 0 0 1-4.781-4.78A4.787 4.787 0 0 1 51 23.905a4.787 4.787 0 0 1 4.781 4.782Z" fill="#001E54"/><path d="M54.188 11.156h-6.376c-.88 0-1.593.713-1.593 1.594l-.064 2.45a13.67 13.67 0 0 0-1.328.554l-1.716-1.716a1.592 1.592 0 0 0-2.254 0l-4.507 4.507a1.592 1.592 0 0 0 0 2.253l1.685 1.782c-.193.411-.368.83-.542 1.326h-2.43c-.882 0-1.594.713-1.594 1.594v6.375c0 .881.712 1.594 1.593 1.594l2.45.063c.153.432.328.852.555 1.328l-1.717 1.717a1.592 1.592 0 0 0 0 2.253l4.507 4.507c.623.623 1.63.623 2.254 0l1.782-1.684c.41.193.83.368 1.326.541v2.431c0 .881.712 1.594 1.593 1.594h6.376c.88 0 1.593-.713 1.593-1.594l.064-2.45a13.67 13.67 0 0 0 1.328-.554l1.716 1.716c.623.623 1.63.623 2.254 0l4.507-4.507a1.592 1.592 0 0 0 0-2.253l-1.685-1.782c.193-.411.368-.83.521-1.263L62.985 33l1.524.47h2.428c.882 0 1.594-.713 1.594-1.594V25.5c0-.881-.712-1.594-1.594-1.594l-2.45-.063a13.67 13.67 0 0 0-.554-1.328l1.717-1.717a1.592 1.592 0 0 0 0-2.253l-4.507-4.507a1.592 1.592 0 0 0-2.254 0l-1.782 1.684c-.41-.194-.83-.37-1.326-.543V12.75c0-.881-.712-1.594-1.593-1.594Zm5.238 6.852.59-.59 2.253 2.254-.59.59c-.962.962-1.195 2.404-.595 3.68.15.313.282.637.403.975.476 1.322 1.662 2.177 3.022 2.177h.835v3.187h-.835c-1.36 0-2.546.855-3.022 2.177-.002.002-.002.005-.003.007-.118.331-.25.655-.402.97-.598 1.274-.365 2.716.598 3.679l.59.59-2.254 2.253-.59-.59c-.96-.962-2.408-1.195-3.68-.596-.314.15-.637.282-.975.403-1.323.477-2.177 1.663-2.177 3.022v.835h-3.188v-.835c0-1.36-.854-2.545-2.183-3.023a9.963 9.963 0 0 1-.97-.402c-1.273-.594-2.718-.363-3.68.598l-.589.59-2.253-2.254.59-.59c.962-.962 1.195-2.405.595-3.68-.15-.314-.282-.637-.403-.975-.476-1.325-1.662-2.179-3.022-2.179h-.835v-3.187h.835c1.36 0 2.546-.855 3.024-2.184.118-.331.25-.655.401-.97.598-1.274.365-2.716-.597-3.679l-.59-.59 2.254-2.253.59.59c.96.96 2.407 1.197 3.68.596.313-.15.637-.282.975-.403 1.324-.477 2.178-1.663 2.178-3.022v-.835h3.188v.835c0 1.36.854 2.545 2.183 3.023.332.118.655.25.97.402 1.274.6 2.721.363 3.68-.596ZM16.12 36.207l1.011-1.004 1.56 1.57a1.594 1.594 0 0 0 2.72-1.002l.897-11.744a1.595 1.595 0 0 0-1.712-1.71l-11.657.902a1.591 1.591 0 0 0-1.007 2.711l1.576 1.59-1.519 1.53c-2.218 1.832-3.737 4.084-4.395 6.518-1.726 6.357 2.217 13.918 9.588 18.388a1.594 1.594 0 0 0 2.185-2.193c-1.229-2.017-2.627-5.26-2.303-9.32.191-2.3 1.278-4.515 3.057-6.236Zm-5.879 11.28c-3.117-3.421-4.537-7.533-3.573-11.084.493-1.812 1.669-3.52 3.404-4.94.042-.034.083-.07.122-.11l2.69-2.709a1.594 1.594 0 0 0 0-2.245l-.265-.266 6.369-.494-.491 6.415-.234-.238c-.601-.6-1.666-.602-2.263.002l-2.095 2.097c-2.333 2.258-3.76 5.194-4.022 8.332a17.76 17.76 0 0 0 .358 5.24ZM94.433 24.254a1.595 1.595 0 0 0-1.37-1.033l-11.657-.902a1.596 1.596 0 0 0-1.712 1.71l.896 11.743a1.59 1.59 0 0 0 1.037 1.373c.58.21 1.24.07 1.683-.37l1.56-1.572 1.01 1.005c1.78 1.722 2.867 3.939 3.063 6.296.32 4.002-1.08 7.245-2.307 9.263a1.593 1.593 0 0 0 1.358 2.42c.285 0 .57-.076.827-.23 7.371-4.471 11.314-12.032 9.588-18.39-.658-2.431-2.177-4.683-4.395-6.518l-1.519-1.53 1.576-1.589c.437-.44.579-1.095.362-1.676Zm.899 12.149c.964 3.554-.457 7.669-3.58 11.09.35-1.595.515-3.375.36-5.316-.256-3.068-1.684-6.004-4.017-8.262L86 31.818a1.596 1.596 0 0 0-2.264-.002l-.234.238-.49-6.415 6.368.494-.265.266a1.594 1.594 0 0 0 0 2.245l2.69 2.71c.039.038.08.075.122.108 1.737 1.422 2.913 3.129 3.404 4.94Z" fill="#001E54"/><path d="m45.902 53.68.634-3.126c-10.342-2.1-17.849-11.295-17.849-21.867 0-10.57 7.507-19.767 17.849-21.866l-.634-3.125C34.08 6.096 25.5 16.606 25.5 28.687S34.08 51.28 45.902 53.68ZM49.515 50.95l-.219 3.182a26.225 26.225 0 0 0 3.406 0l-.218-3.181c-.98.068-1.988.068-2.97 0ZM76.5 28.688c0-12.081-8.581-22.592-20.402-24.992l-.634 3.125c10.342 2.1 17.848 11.295 17.848 21.867 0 10.57-7.506 19.767-17.848 21.866l.634 3.125C67.92 51.28 76.5 40.77 76.5 28.687ZM49.515 6.424c.98-.068 1.989-.068 2.969 0l.218-3.18a25.84 25.84 0 0 0-3.406 0l.219 3.18Z" fill="#001E54"/></svg>