<svg width="102" height="102" fill="none" xmlns="http://www.w3.org/2000/svg"><g clip-path="url(#a)" fill="#001E54"><path d="m.917 37.62 27.122 12.73c.272.128.577.17.875.122l9.9-1.617c5.658-.923 11.44.96 15.469 5.037l8.285 8.388c.508.514.762 1.194.717 1.915a2.469 2.469 0 0 1-.953 1.809 2.515 2.515 0 0 1-2.987.072l-8.079-5.723a2.952 2.952 0 0 0-3.713.224l-5.904 5.357a1.493 1.493 0 1 0 2.007 2.212l5.884-5.356 8.078 5.723a5.478 5.478 0 0 0 3.17 1.002 5.487 5.487 0 0 0 3.387-1.16 5.492 5.492 0 0 0 2.09-3.972 5.491 5.491 0 0 0-1.572-4.202l-6.569-6.65a18.806 18.806 0 0 1 10.564.44l3.5 1.189a3.654 3.654 0 0 0 2.966-.275l.021-.012 25.81-15.052a1.493 1.493 0 1 0-1.504-2.58L73.684 52.286a.67.67 0 0 1-.535.046l-3.5-1.19a21.798 21.798 0 0 0-13.937-.017 20.75 20.75 0 0 0-17.38-5.217L28.89 47.45 2.186 34.916a1.493 1.493 0 0 0-1.27 2.704Z"/><path d="M101.79 65.609a1.493 1.493 0 0 0-1.997-.687L86.654 71.34c-.224.11-.418.274-.562.478l-1.057 1.49a15.038 15.038 0 0 1-4.815 4.361 5.249 5.249 0 0 0-.505-.688l-2.61-3.004a5.261 5.261 0 0 0-7.414-.519l-.215.187a5.238 5.238 0 0 0-1.796 3.666l-.069-.007a5.222 5.222 0 0 0-3.814 1.276l-.215.187a5.24 5.24 0 0 0-1.797 3.669 5.238 5.238 0 0 0-3.883 1.266l-.215.187a5.24 5.24 0 0 0-1.796 3.669 5.239 5.239 0 0 0-3.884 1.267l-.215.186a5.222 5.222 0 0 0-1.795 3.6 5.221 5.221 0 0 0 1.276 3.815l1.26 1.45-.503.446-.027.025c-.973.905-2.583.882-3.532-.045a2.409 2.409 0 0 1-.055-3.178 1.493 1.493 0 0 0-2.156-2.06l-.16.15c-.973.904-2.584.88-3.532-.046a2.403 2.403 0 0 1-.037-3.202 1.494 1.494 0 0 0-2.144-2.074l-.044.042c-.973.904-2.584.881-3.532-.046a2.408 2.408 0 0 1-.053-3.181 1.493 1.493 0 0 0-1.81-2.301 2.41 2.41 0 0 1-2.903-.565c-.845-.965-.738-2.491.236-3.41l1.606-1.421 5.01-4.546a1.493 1.493 0 1 0-2.008-2.212l-4.995 4.534-1.608 1.424-.027.024a5.517 5.517 0 0 0-1.607 2.763l-.011-.007a24.692 24.692 0 0 1-7.098-6.035l-.852-1.058c-.137-.171-.31-.31-.507-.406L2.207 62.697A1.494 1.494 0 0 0 .895 65.38l17.677 8.647.643.8a27.667 27.667 0 0 0 7.953 6.761l1.86 1.055c.2.413.455.806.77 1.165a5.392 5.392 0 0 0 3.439 1.808 5.391 5.391 0 0 0 1.443 4.365 5.547 5.547 0 0 0 4.27 1.595 5.386 5.386 0 0 0 1.487 3.684c1.193 1.193 2.833 1.724 4.424 1.584a5.383 5.383 0 0 0 1.479 3.55 5.536 5.536 0 0 0 3.923 1.605 5.527 5.527 0 0 0 3.759-1.452l.533-.471a5.222 5.222 0 0 0 3.302 1.161 5.216 5.216 0 0 0 3.439-1.289l.215-.187a5.24 5.24 0 0 0 1.796-3.67 5.233 5.233 0 0 0 3.884-1.266l.215-.186a5.239 5.239 0 0 0 1.796-3.67 5.233 5.233 0 0 0 3.884-1.266l.214-.187a5.222 5.222 0 0 0 1.796-3.599l.003-.07a5.232 5.232 0 0 0 3.88-1.266l.216-.187a5.241 5.241 0 0 0 1.8-3.75 18.026 18.026 0 0 0 6.476-5.609l.837-1.179 12.796-6.25a1.492 1.492 0 0 0 .686-1.997ZM59.553 97.507l-.215.187a2.252 2.252 0 0 1-1.647.55 2.254 2.254 0 0 1-1.554-.774l-2.61-3.003a2.253 2.253 0 0 1-.55-1.647 2.255 2.255 0 0 1 .775-1.554l.215-.187a2.259 2.259 0 0 1 1.486-.555c.635 0 1.266.264 1.714.78l2.61 3.003c.82.944.72 2.38-.224 3.2Zm5.894-5.122-.215.187c-.944.82-2.38.72-3.2-.225l-2.61-3.003c-.821-.944-.72-2.38.224-3.2l.215-.188c.944-.82 2.38-.72 3.2.225l2.61 3.003c.821.944.72 2.38-.224 3.201Zm6.67-6.676a2.254 2.254 0 0 1-.776 1.554l-.214.187c-.945.82-2.38.72-3.201-.225l-2.61-3.003c-.82-.944-.72-2.38.224-3.201l.215-.187a2.252 2.252 0 0 1 1.648-.55 2.254 2.254 0 0 1 1.553.774l2.61 3.004c.398.457.593 1.042.55 1.647Zm5.12-3.569-.216.187c-.944.82-2.38.72-3.2-.224L71.21 79.1a2.253 2.253 0 0 1-.551-1.647 2.254 2.254 0 0 1 .775-1.554l.215-.187c.944-.82 2.38-.72 3.2.224l2.61 3.004c.821.944.72 2.38-.224 3.2ZM45.6 41.787l4.133 1.516a3.421 3.421 0 0 0 2.354 0l4.133-1.516a23.206 23.206 0 0 0 9.663-6.73 23.232 23.232 0 0 0 5.08-10.473 1.493 1.493 0 0 0-2.93-.587c-1.368 6.841-6.289 12.584-12.841 14.986L51.059 40.5a.434.434 0 0 1-.298 0l-4.134-1.516c-7.916-2.903-13.235-10.519-13.235-18.951V7.052a.74.74 0 0 1 .597-.724l17.013-3.313 16.83 3.31a.74.74 0 0 1 .596.725v10.876a1.493 1.493 0 0 0 2.986 0V7.049a3.733 3.733 0 0 0-3.006-3.654L51.291.028a1.495 1.495 0 0 0-.573 0l-17.3 3.369a3.732 3.732 0 0 0-3.013 3.656v12.98c0 9.679 6.106 18.422 15.194 21.754Z"/><path d="M51.286 6.115a1.49 1.49 0 0 0-.574-.001L37.586 8.67a1.493 1.493 0 0 0-1.208 1.466v9.896c0 7.185 4.532 13.674 11.278 16.147l2.74 1.005a1.492 1.492 0 0 0 1.028 0l2.74-1.005c6.745-2.473 11.277-8.962 11.277-16.147v-9.905c0-.714-.505-1.328-1.205-1.465l-12.95-2.547Zm11.168 13.917c0 5.937-3.745 11.3-9.319 13.343l-2.225.817-2.226-.816c-5.574-2.045-9.319-7.407-9.319-13.344v-8.665l11.631-2.265 11.458 2.253v8.677Z"/><path d="M47.077 22.8a1.493 1.493 0 0 0-2.046 2.175l2.41 2.267a1.493 1.493 0 0 0 2.177-.14l7.807-9.486a1.494 1.494 0 0 0-2.306-1.897l-6.794 8.254-1.248-1.174Z"/></g><defs><clipPath id="a"><path fill="#fff" d="M0 0h102v102H0z"/></clipPath></defs></svg>