<?xml version="1.0" standalone="no"?>
<!DOCTYPE svg PUBLIC "-//W3C//DTD SVG 20010904//EN"
 "http://www.w3.org/TR/2001/REC-SVG-20010904/DTD/svg10.dtd">
<svg version="1.0" xmlns="http://www.w3.org/2000/svg"
 width="482.000000pt" height="482.000000pt" viewBox="0 0 482.000000 482.000000"
 preserveAspectRatio="xMidYMid meet">
<metadata>
Created by potrace 1.14, written by Peter Selinger 2001-2017
</metadata>
<g transform="translate(0.000000,482.000000) scale(0.100000,-0.100000)"
fill="#000000" stroke="none">
<path d="M1166 4428 c-8 -13 -273 -472 -590 -1020 l-575 -998 40 -70 c23 -38
44 -70 49 -70 4 0 66 63 136 139 l129 140 479 830 480 831 1045 0 1046 -1 450
-781 c248 -430 465 -807 483 -840 l33 -58 -83 1 -83 0 -540 584 c-297 322
-543 584 -546 582 -3 -1 -169 -179 -370 -395 l-364 -393 -3 135 -3 136 -119 0
-120 0 0 -267 0 -268 -360 -388 -360 -388 0 -300 0 -299 255 0 255 0 0 120 0
120 -135 0 -135 0 0 133 0 132 732 789 731 789 26 -31 c14 -17 235 -256 491
-531 l465 -501 270 0 270 0 34 56 c27 45 32 62 25 79 -5 12 -269 473 -588
1024 l-579 1001 -1178 0 -1179 0 -14 -22z"/>
<path d="M699 2718 c-272 -293 -504 -544 -516 -558 l-22 -26 62 -109 61 -108
40 44 c23 25 210 227 416 449 206 222 392 423 413 447 21 24 43 43 47 43 5 0
106 -106 226 -235 l217 -235 76 82 c42 45 76 87 76 95 0 14 -581 643 -594 643
-5 0 -231 -240 -502 -532z"/>
<path d="M2710 2020 l0 -170 170 0 170 0 0 170 0 170 -170 0 -170 0 0 -170z"/>
<path d="M3170 2020 l0 -170 175 0 175 0 0 170 0 170 -175 0 -175 0 0 -170z"/>
<path d="M3825 1340 l-420 -729 -1046 -1 -1045 0 -388 673 c-214 369 -392 676
-396 681 -7 7 -144 -126 -163 -160 -6 -10 123 -242 400 -722 l409 -707 1181
-3 1180 -2 481 832 c264 458 484 841 487 851 7 16 -3 17 -126 17 l-134 0 -420
-730z"/>
<path d="M2710 1555 l0 -175 168 2 167 3 3 173 2 172 -170 0 -170 0 0 -175z"/>
<path d="M3172 1558 l3 -173 170 0 170 0 0 170 0 170 -173 3 -172 2 2 -172z"/>
</g>
</svg>
