<svg width="70" height="71" fill="none" xmlns="http://www.w3.org/2000/svg"><g clip-path="url(#a)" fill="#001E54"><path d="M69.865 41.532c-.628-6.262-3.453-12.165-7.953-16.622a27.53 27.53 0 0 0-13.505-7.346v-3.44c2.023-.5 3.526-2.313 3.526-4.469 0-2.539-2.085-4.604-4.648-4.604H37.44c-2.563 0-4.649 2.065-4.649 4.604 0 2.156 1.504 3.97 3.527 4.468v3.45a27.529 27.529 0 0 0-13.464 7.337 27.566 27.566 0 0 0-2.321 2.61c-.035-.003-.07-.006-.104-.006h-9.743a1.36 1.36 0 0 0-1.367 1.354 1.36 1.36 0 0 0 1.367 1.355h7.986a27.035 27.035 0 0 0-2.426 5.205H1.367A1.36 1.36 0 0 0 0 36.782a1.36 1.36 0 0 0 1.367 1.354h14.108a27.293 27.293 0 0 0-.679 5.206H8.75a1.36 1.36 0 0 0-1.367 1.354A1.36 1.36 0 0 0 8.75 46.05h6.09c.115 1.753.4 3.497.853 5.205H6.836a1.36 1.36 0 0 0-1.367 1.355 1.36 1.36 0 0 0 1.367 1.354h9.73a27.172 27.172 0 0 0 6.289 9.633 27.78 27.78 0 0 0 19.508 8.011c5.335 0 10.603-1.53 15.072-4.412a1.346 1.346 0 0 0 .4-1.874 1.375 1.375 0 0 0-1.892-.396c-9.783 6.31-22.886 4.946-31.154-3.244-9.703-9.61-9.703-25.247 0-34.857 9.701-9.61 25.487-9.61 35.19 0 8.257 8.18 9.642 21.147 3.293 30.832a1.347 1.347 0 0 0 .402 1.874c.633.407 1.48.229 1.89-.398a27.24 27.24 0 0 0 4.301-17.6ZM35.527 9.655c0-1.045.858-1.895 1.914-1.895h9.844c1.055 0 1.914.85 1.914 1.895a1.907 1.907 0 0 1-1.914 1.896H37.44a1.907 1.907 0 0 1-1.914-1.896Zm3.526 7.453V14.26h6.62v2.843a28.123 28.123 0 0 0-6.62.005Z"/><path d="M60.946 61.284c-.36 0-.712.145-.966.397-.256.252-.401.601-.401.958 0 .356.145.705.4.957a1.376 1.376 0 0 0 1.934 0c.254-.252.4-.601.4-.957a1.357 1.357 0 0 0-1.367-1.355ZM42.384 23.245c-11.695 0-21.21 9.424-21.21 21.008s9.515 21.008 21.21 21.008c11.694 0 21.209-9.424 21.209-21.008s-9.515-21.008-21.21-21.008Zm0 39.308c-10.188 0-18.475-8.21-18.475-18.3s8.287-18.3 18.475-18.3c10.187 0 18.475 8.21 18.475 18.3s-8.288 18.3-18.475 18.3Z"/><path d="m51.032 33.772-6.772 6.707a4.257 4.257 0 0 0-1.876-.434c-.674 0-1.31.157-1.877.434l-3.03-3.002a1.377 1.377 0 0 0-1.934 0 1.345 1.345 0 0 0 0 1.915l3.03 3.002a4.148 4.148 0 0 0-.438 1.859c0 2.32 1.906 4.208 4.249 4.208 2.342 0 4.248-1.888 4.248-4.208a4.15 4.15 0 0 0-.438-1.859l6.573-6.51.198-.197a1.345 1.345 0 0 0 0-1.915 1.377 1.377 0 0 0-1.933 0Zm-8.648 11.98a1.509 1.509 0 0 1-1.514-1.499c0-.827.679-1.5 1.514-1.5.834 0 1.514.673 1.514 1.5s-.68 1.5-1.514 1.5ZM57.002 42.915h-1.267a1.36 1.36 0 0 0-1.367 1.355 1.36 1.36 0 0 0 1.367 1.354h1.267a1.36 1.36 0 0 0 1.367-1.354 1.36 1.36 0 0 0-1.367-1.355ZM29.032 42.882h-1.267a1.36 1.36 0 0 0-1.367 1.355 1.36 1.36 0 0 0 1.367 1.354h1.267a1.36 1.36 0 0 0 1.367-1.355 1.36 1.36 0 0 0-1.367-1.354ZM42.4 32.382a1.36 1.36 0 0 0 1.367-1.354v-1.254a1.36 1.36 0 0 0-1.367-1.355 1.36 1.36 0 0 0-1.367 1.355v1.254a1.36 1.36 0 0 0 1.367 1.354ZM42.367 56.124A1.36 1.36 0 0 0 41 57.478v1.255a1.36 1.36 0 0 0 1.367 1.354 1.36 1.36 0 0 0 1.367-1.355v-1.254a1.36 1.36 0 0 0-1.367-1.354ZM1.367 51.255A1.358 1.358 0 0 0 0 52.609c0 .358.146.706.4.957.255.252.608.397.967.397a1.358 1.358 0 0 0 1.367-1.354 1.358 1.358 0 0 0-1.367-1.354Z"/></g><defs><clipPath id="a"><path fill="#fff" transform="translate(0 .69)" d="M0 0h70v69.336H0z"/></clipPath></defs></svg>