<svg width="70" height="71" fill="none" xmlns="http://www.w3.org/2000/svg"><g clip-path="url(#a)" fill="#001E54"><path d="m69.235 50.781-6.516-2.349a1.159 1.159 0 0 0-1.48.687l-.396 1.075-7.549-2.727a1.126 1.126 0 0 0-.594-.051l-15.706 2.747a4.63 4.63 0 0 0-3.308 2.42l-7.204-2.603a4.618 4.618 0 0 0-3.533.155 4.593 4.593 0 0 0-2.623 3.48c-.288 2.205 1.03 4.307 3.154 5.027l23.732 8.556a1.169 1.169 0 0 0 .765.01l6.628-2.217.705.254-.396 1.076a1.142 1.142 0 0 0 .694 1.467l6.517 2.349a1.154 1.154 0 0 0 1.48-.683L69.93 52.24a1.142 1.142 0 0 0-.695-1.46ZM54.249 62.697l-6.628 2.216-23.351-8.42a2.419 2.419 0 0 1-1.66-2.527 2.291 2.291 0 0 1 1.1-1.644 2.33 2.33 0 0 1 1.981-.187l7.499 2.702c.004.211.02.422.052.63.453 2.484 2.84 4.142 5.352 3.716l13.01-2.273-.402-2.255-13.005 2.273a2.326 2.326 0 0 1-2.677-1.85 2.1 2.1 0 0 1 .005-.79c.009-.037.016-.075.02-.114.015-.097.042-.193.08-.285a2.316 2.316 0 0 1 1.772-1.473l15.398-2.69 7.258 2.616-3.953 10.76-1.086-.39a1.17 1.17 0 0 0-.765-.015Zm7.574 4.9-4.344-1.566 5.533-15.06 4.345 1.566-5.534 15.06ZM27.144 19.336a8.946 8.946 0 0 0 2.009 3.642 2.17 2.17 0 0 0-.036.277v6.234c0 1.896 1.552 3.434 3.467 3.434v11.448c-.003.436.246.835.639 1.03l2.311 1.145c.326.16.709.16 1.034 0l2.311-1.145c.394-.195.642-.594.64-1.03V32.923c1.914 0 3.467-1.538 3.467-3.434v-6.234c-.007-.1-.02-.2-.039-.298a8.855 8.855 0 0 0 1.772-2.888 4.236 4.236 0 0 0 4.31-1.959 4.487 4.487 0 0 0-.725-5.58L38.9 3.218A8.078 8.078 0 0 0 33.179.87H21.027c-.157 0-.311.032-.455.093l-7.866 3.341h-.925V2.015A1.15 1.15 0 0 0 10.627.87H1.38A1.15 1.15 0 0 0 .224 2.015v18.316a1.15 1.15 0 0 0 1.156 1.145h9.246a1.15 1.15 0 0 0 1.155-1.145v-2.29h.17c.826 2.748 4.543 4.58 7.92 4.58a9.258 9.258 0 0 0 7.273-3.285Zm-17.674-.15H2.536V3.16H9.47v16.026Zm27.737 24.477-1.156.572-1.155-.572v-10.74h2.311v10.74Zm3.467-14.174a1.15 1.15 0 0 1-1.156 1.145h-6.934a1.15 1.15 0 0 1-1.156-1.145v-4.673c.778.448 1.618.78 2.493.984a2.329 2.329 0 0 0 2.444 1.41 2.315 2.315 0 0 0 2.012-1.968 2.301 2.301 0 0 0-1.392-2.438 2.34 2.34 0 0 0-2.74.696 6.885 6.885 0 0 1-1.85-.782 9.135 9.135 0 0 1 3.656-1.242c1.66.23 3.242.84 4.623 1.779v6.234Zm.86-8.388a12.694 12.694 0 0 0-5.483-1.915c-1.95.206-3.825.86-5.475 1.91a6.675 6.675 0 0 1-1.356-3.055h5.676a4.513 4.513 0 0 0 4.037-2.393l3.237 3.205c.129.12.265.23.409.333a6.545 6.545 0 0 1-1.044 1.915Zm-2.07-8.166a4.517 4.517 0 0 0-1.145-2.519 6.88 6.88 0 0 1 4.641 5.985l-3.496-3.466ZM25.65 16.897c0 1.733-2.863 3.434-5.779 3.434-2.915 0-5.778-1.7-5.778-3.434a1.15 1.15 0 0 0-1.156-1.145h-1.155V6.594h1.155c.157 0 .312-.031.456-.093l7.865-3.341h11.915a5.77 5.77 0 0 1 4.092 1.675l9.403 9.314c.76.704.93 1.833.412 2.726a2.085 2.085 0 0 1-1.783.96h-.055c.035-.311.053-.625.055-.938-.006-5.055-4.142-9.153-9.246-9.158a9.217 9.217 0 0 0-4.437 1.144h-9.431v2.29h12.713a2.3 2.3 0 0 1 2.311 2.29 2.3 2.3 0 0 1-2.311 2.289h-8.09a1.15 1.15 0 0 0-1.156 1.145Z"/></g><defs><clipPath id="a"><path fill="#fff" transform="translate(0 .87)" d="M0 0h70v69.336H0z"/></clipPath></defs></svg>