<svg width="70" height="70" fill="none" xmlns="http://www.w3.org/2000/svg"><g clip-path="url(#a)"><path d="m.612 35.435 5.42 3.098c.543.311 1.203.198 1.613-.212l4.048 2.315c-.835 2.625.998 5.319 3.754 5.557-.607 2.26.73 4.622 3.06 5.24a4.35 4.35 0 0 0 1.936.072c-.249 2.52 1.757 4.694 4.31 4.694a4.33 4.33 0 0 0 2.156-.574c.123 2.252 2.008 4.046 4.326 4.046a4.33 4.33 0 0 0 2.155-.573c.934-.534 1.027-.58 1.264-.749l2.416 1.381a4.496 4.496 0 0 0 3.404.424c1.97-.543 3.208-2.306 3.14-4.231 2.059 1.112 4.75.444 5.92-1.654.4-.718.568-1.505.528-2.275.878.325 1.825.36 2.73.09a4.273 4.273 0 0 0 2.778-5.631 4.316 4.316 0 0 0 2.953-2.116c.62-1.23.596-2.655.054-3.856l3.778-2.16c.41.411 1.072.522 1.614.213l5.418-3.1c.378-.215.613-.618.613-1.05V11.54c0-.931-1.022-1.516-1.837-1.05L52.757 19.3c-.548.313-.772.94-.62 1.49l-4.084 2.336a1.32 1.32 0 0 0-.63.84 4.523 4.523 0 0 1-4.444-.017l-4.523-2.587a6.68 6.68 0 0 0-6.606 0l-6.199 3.545a7.026 7.026 0 0 1-3.074-.942 1.32 1.32 0 0 0-.63-.84l-4.084-2.335a1.316 1.316 0 0 0-.621-1.49l-4.674-2.673a1.03 1.03 0 0 0-1.4.372 1.01 1.01 0 0 0 .375 1.387l4.053 2.318-9.16 15.715-4.385-2.507V12.957l5.262 3.01a1.03 1.03 0 0 0 1.4-.372 1.01 1.01 0 0 0-.375-1.388L1.837 10.49C1.022 10.024 0 10.608 0 11.54v22.844c0 .432.235.835.612 1.05Zm13.235 7.617a2.244 2.244 0 0 1 .833-3.077l2.933-1.678a2.289 2.289 0 0 1 3.107.825 2.244 2.244 0 0 1-.832 3.077l-2.934 1.678a2.29 2.29 0 0 1-3.107-.825Zm5.191 6.42a2.25 2.25 0 0 1-1.608-2.76 2.242 2.242 0 0 1 1.06-1.368l1.745-.998a2.289 2.289 0 0 1 3.104.826 2.244 2.244 0 0 1-.832 3.078l-1.743.996c-.526.3-1.139.38-1.726.225Zm3.739 3.57a2.244 2.244 0 0 1 .832-3.077l1.573-.9a2.278 2.278 0 0 1 1.726-.225 2.25 2.25 0 0 1 1.608 2.76 2.243 2.243 0 0 1-1.06 1.367l-1.572.9a2.289 2.289 0 0 1-3.107-.825Zm10.48 3.787-.892.51a2.29 2.29 0 0 1-3.107-.825 2.244 2.244 0 0 1 .832-3.077l.893-.51a2.289 2.289 0 0 1 3.106.824 2.244 2.244 0 0 1-.832 3.078ZM53.124 22.57l4.528 7.767c.283.486.91.652 1.4.372.49-.28.659-.902.376-1.387l-5.024-8.62 13.545-7.746v20.955l-4.385 2.507-1.696-2.91a1.03 1.03 0 0 0-1.401-.372 1.01 1.01 0 0 0-.375 1.387l1.2 2.06-3.425 1.958L49.7 24.529l3.424-1.958Zm-29.487 4.038c-1.593 2.463-.29 5.709 2.518 6.454a4.332 4.332 0 0 0 3.282-.428l6.39-3.653a.273.273 0 0 1 .27 0l3.201 1.83a1.03 1.03 0 0 0 1.4-.371 1.01 1.01 0 0 0-.374-1.388l-3.2-1.83a2.346 2.346 0 0 0-2.321 0l-6.39 3.653a2.289 2.289 0 0 1-3.108-.824 2.244 2.244 0 0 1 .833-3.078l6.738-3.853a4.606 4.606 0 0 1 4.556 0l4.522 2.587a6.598 6.598 0 0 0 6.173.186l6.663 11.432-10.195-5.83a1.03 1.03 0 0 0-1.4.372 1.01 1.01 0 0 0 .375 1.387l12.139 6.942c1.09.623 1.54 2.084.993 3.205a2.289 2.289 0 0 1-3.091.798c-.157-.104 1.226.701-7.32-4.186a1.03 1.03 0 0 0-1.4.372 1.01 1.01 0 0 0 .375 1.387l7.42 4.244c1.003.573 1.412 1.924.89 2.96-.597 1.182-2.009 1.602-3.164.942l-2.5-1.43h-.001l-4.92-2.814a1.03 1.03 0 0 0-1.4.372 1.01 1.01 0 0 0 .375 1.388l4.92 2.813a2.252 2.252 0 0 1 .854 3.039c-.617 1.105-2.089 1.458-3.193.826-.167-.096-4.795-2.743-4.855-2.776a1.03 1.03 0 0 0-1.4.371 1.01 1.01 0 0 0 .375 1.388l1.767 1.01c1.097.64 1.434 2 .854 3.04-.625 1.12-2.104 1.448-3.193.825l-2.097-1.2a4.248 4.248 0 0 0-.132-4.035c-1.064-1.825-3.289-2.582-5.223-1.885-.094-2.498-2.378-4.465-4.977-4.072.238-2.067-1.057-3.994-3.064-4.585a4.248 4.248 0 0 0-.106-4.088c-1.192-2.045-3.843-2.749-5.908-1.568l-1.378.789L21.87 25.9a9.11 9.11 0 0 0 1.767.708ZM12.133 38.542l-3.425-1.959 8.168-14.012L20.3 24.53l-8.167 14.012Z" fill="#001E54"/></g><defs><clipPath id="a"><path fill="#fff" transform="translate(0 .652)" d="M0 0h70v69.336H0z"/></clipPath></defs></svg>