<svg width="512" height="512" fill="none" xmlns="http://www.w3.org/2000/svg"><path d="M437.017 74.98C388.666 26.628 324.379 0 256.001 0 187.619 0 123.334 26.628 74.983 74.98 26.63 123.333 0 187.62 0 255.999c0 68.383 26.629 132.67 74.983 181.021C123.334 485.372 187.621 512 256.001 512c68.376 0 132.665-26.628 181.017-74.98C485.372 388.667 512 324.381 512 255.999c0-68.377-26.629-132.665-74.983-181.02ZM256.001 99.297c86.407 0 156.702 70.297 156.702 156.702 0 86.406-70.295 156.703-156.702 156.703S99.297 342.405 99.297 255.999c0-86.405 70.297-156.702 156.704-156.702Zm164.562 321.267c-43.958 43.955-102.4 68.162-164.562 68.162-62.164 0-120.606-24.207-164.562-68.162-43.958-43.955-68.166-102.4-68.166-164.566h52.75c0 99.238 80.737 179.976 179.978 179.976 99.239 0 179.975-80.736 179.975-179.976 0-99.239-80.737-179.976-179.975-179.976-5.89 0-11.71.293-17.454.848V23.912c5.779-.425 11.6-.64 17.454-.64 62.162 0 120.604 24.207 164.562 68.163 43.957 43.957 68.164 102.401 68.164 164.563-.001 62.168-24.207 120.611-68.164 164.566Z" fill="#49A7CC"/></svg>