<svg xmlns="http://www.w3.org/2000/svg" version="1.1" xmlns:xlink="http://www.w3.org/1999/xlink" width="512" height="512" x="0" y="0" viewBox="0 0 512.001 512.001" style="enable-background:new 0 0 512 512" xml:space="preserve" class=""><g><path d="M469.058 0H69.057C52.515 0 39.058 13.458 39.058 30v305.889c0 16.542 13.457 30 29.999 30h44.413l-89.618 84.068c-6.877 6.452-10.75 15.306-10.903 24.932-.157 9.859 3.733 19.494 10.675 26.436 6.936 6.94 16.588 10.833 26.433 10.673 9.628-.153 18.483-4.025 24.935-10.902l112.177-119.583c54.514 37.674 136.953 30.196 183.77-15.623h98.121c16.542 0 30-13.458 30-30V30c-.002-16.542-13.46-30-30.002-30zM60.404 487.411c-2.714 2.892-6.502 4.521-10.667 4.588-4.462.071-8.839-1.684-11.972-4.817-3.135-3.134-4.892-7.499-4.82-11.974.067-4.163 1.697-7.95 4.59-10.664l88.647-83.156 17.378 17.378zm96.847-103.241-16.474-16.474 14.769-13.854a151.251 151.251 0 0 0 15.559 15.559zm-18.193-128.28c0-71.683 58.317-130 130-130 172.226 6.535 172.179 253.491-.002 260.001-71.681-.001-129.998-58.319-129.998-130.001zm330 89.999h-80.071c74.172-96.242 2.6-241.133-119.931-239.998-117.931-1.15-190.838 134.616-125.62 231.889l-8.645 8.109H69.057c-5.514 0-9.999-4.486-9.999-10V80h164.996c13.254-.492 13.244-19.513 0-20H59.058V30c0-5.514 4.485-10 9.999-10h400.001c5.514 0 10 4.486 10 10v30H314.054c-13.254.492-13.244 19.513 0 20h165.004v255.889c0 5.514-4.487 10-10 10z" fill="#09bdfd" opacity="1" data-original="#000000" class=""></path><path d="M269.058 60h-.008c-5.522 0-9.996 4.477-9.996 10 .492 13.248 19.515 13.249 20.004 0 0-5.523-4.478-10-10-10zM342.861 213.904l-31.819-31.819c-3.725-3.874-10.418-3.873-14.143 0l-27.843 27.843-27.842-27.842c-3.725-3.874-10.418-3.874-14.143 0l-31.819 31.819c-3.905 3.905-3.905 10.237 0 14.143l27.842 27.842-27.842 27.842c-3.905 3.905-3.905 10.237 0 14.143l31.819 31.819c3.725 3.874 10.418 3.874 14.143 0l27.842-27.842 27.843 27.843c3.725 3.873 10.418 3.873 14.143 0l31.819-31.819c3.905-3.905 3.905-10.237 0-14.143l-27.842-27.842 27.842-27.842c3.906-3.907 3.906-10.239 0-14.145zm-49.055 34.914c-3.905 3.905-3.905 10.237 0 14.143l27.842 27.842-17.677 17.678-27.843-27.843c-3.724-3.873-10.419-3.873-14.143 0l-27.842 27.842-17.677-17.678 27.842-27.842c3.905-3.905 3.905-10.237 0-14.143l-27.842-27.842 17.677-17.678 27.842 27.842c3.724 3.874 10.418 3.874 14.143 0l27.843-27.843 17.677 17.678z" fill="#09bdfd" opacity="1" data-original="#000000" class=""></path></g></svg>