<svg width="70" height="70" fill="none" xmlns="http://www.w3.org/2000/svg"><path d="M63 15.313c0-.876-.656-1.75-1.531-1.97L35.656 4.376h-1.312l-26.032 8.75C7.657 13.563 7 14.219 7 15.313c-.656 21.656 8.094 37.843 26.906 50.093.657.438 1.532.656 2.407 0C54.906 53.156 63.874 36.75 63 15.312Zm-28 45.5c-8.75-5.907-15.094-12.907-19.031-21l7.437 2.406c1.094.437 2.407-.219 2.844-1.313.438-1.093-.219-2.406-1.313-2.843L14 34.563c-.656-1.75-1.094-3.5-1.531-5.25l10.937 3.5c1.094.437 2.407-.22 2.844-1.313.438-1.094-.219-2.406-1.313-2.844L11.813 24.5c-.218-1.531-.218-3.063-.437-4.813l12.25 3.938c1.313.438 2.406-.438 2.844-1.313.437-1.093-.219-2.406-1.313-2.843l-11.375-3.5 21.219-7 23.625 8.094c.219 18.593-7.438 33.03-23.625 43.75Z" fill="#001E54"/></svg>