<svg width="39" height="39" fill="none" xmlns="http://www.w3.org/2000/svg"><g clip-path="url(#a)" fill="#fff"><path d="M30.812 19.397a.41.41 0 1 1 0-.82.41.41 0 0 1 0 .82ZM19.966 19.397a.41.41 0 1 1 0-.82.41.41 0 0 1 0 .82Z"/><path d="m29.214 18.723 6.476 6.472 1.334-1.333-6.476-6.472-1.334 1.333Zm6.476 7.46a.41.41 0 0 1-.29-.119l-7.056-7.051a.408.408 0 0 1 0-.58l1.913-1.912a.41.41 0 0 1 .58 0l7.058 7.05a.41.41 0 0 1 0 .58l-1.915 1.913a.41.41 0 0 1-.29.12ZM13.753 23.862l1.335 1.333 6.476-6.472-1.334-1.333-6.477 6.472Zm1.335 2.322a.41.41 0 0 1-.29-.12l-1.915-1.913a.41.41 0 0 1 0-.58l7.057-7.05c.16-.16.42-.16.58 0l1.914 1.913a.41.41 0 0 1 0 .579l-7.056 7.051a.41.41 0 0 1-.29.12ZM30.871 30.174a.41.41 0 0 1-.292-.698c.747-.755 1.037-1.27 1.289-1.904l.02-.053c.245-.618.654-1.652.92-2.219a.41.41 0 0 1 .743.348c-.255.543-.674 1.603-.9 2.173l-.02.053c-.334.843-.732 1.434-1.468 2.178a.41.41 0 0 1-.292.122ZM25.491 29.94h.001Zm-.6.843c-.23 0-.478-.077-.736-.23-.204-.123-.5-.429-1.02-1.058-.398-.48-1.053-.901-1.63-1.273l-.012-.007c-1.007-.648-.014-2.452.103-2.655.395-.691.745-1.208 1.134-1.676.524-.63 1.418-1.097 2.735-1.432l.32-.08c1.118-.278 2.174-.54 2.95-1.333a.41.41 0 0 1 .586.574c-.938.958-2.158 1.261-3.338 1.555l-.316.08c-1.142.289-1.897.669-2.307 1.16-.361.436-.676.902-1.052 1.56-.38.662-.564 1.434-.37 1.558l.01.007c.629.403 1.34.862 1.818 1.44.579.698.758.844.809.875.153.09.285.131.36.109.076-.02.142-.118.18-.187.148-.41.143-.787-.014-1.15l-.01-.024c-.163-.452-.62-.858-1.359-1.21a.41.41 0 1 1 .352-.74c.935.444 1.533 1.003 1.775 1.66.24.563.246 1.16.017 1.776a.618.618 0 0 1-.023.05c-.173.326-.407.534-.695.615a.994.994 0 0 1-.267.036Z"/><path d="M34.074 26.778a.41.41 0 0 1-.29-.12l-6.035-6.031a.41.41 0 0 1 0-.58l1.105-1.103a.41.41 0 1 1 .58.58l-.815.813 5.455 5.451.816-.814a.41.41 0 1 1 .58.58l-1.105 1.104a.41.41 0 0 1-.29.12ZM25.943 35.017c-.334 0-.667-.126-.922-.38l-.645-.645a.41.41 0 0 1 .58-.58l.645.645a.485.485 0 0 0 .684 0c.09-.09.14-.211.14-.341 0-.13-.05-.251-.14-.342a.41.41 0 0 1 .58-.58c.246.246.38.573.38.922a1.299 1.299 0 0 1-1.302 1.301Z"/><path d="M27.477 34.025c-.35 0-.677-.135-.922-.38l-.713-.713a.409.409 0 1 1 .58-.58l.714.713c.09.09.211.14.34.14a.479.479 0 0 0 .482-.481c0-.13-.05-.251-.14-.342a.41.41 0 0 1 .58-.579c.246.245.38.572.38.92a1.295 1.295 0 0 1-1.301 1.302Z"/><path d="M29.267 33.289c-.349 0-.676-.135-.921-.38l-1.729-1.727a.41.41 0 1 1 .58-.58l1.728 1.727c.09.09.212.14.342.14a.48.48 0 0 0 .342-.822l-1.667-1.666a.41.41 0 0 1 .58-.58l1.667 1.666a1.304 1.304 0 0 1 0 1.842c-.246.245-.573.38-.922.38Z"/><path d="M30.53 32.027c-.349 0-.676-.135-.921-.38a.41.41 0 0 1 .58-.58c.09.09.212.14.341.14a.48.48 0 0 0 .342-.14c.208-.207.145-.516-.018-.702l-2.855-3.24c-1.047.72-1.818.478-2.575-.202-.247.262-.575.587-.755.714a.41.41 0 1 1-.472-.67c.18-.127.764-.735.883-.888a.412.412 0 0 1 .62-.032c.79.826 1.18.962 2.093.206a.411.411 0 0 1 .57.045l3.107 3.526c.482.547.474 1.33-.018 1.823-.245.245-.572.38-.922.38ZM16.703 26.778a.408.408 0 0 1-.29-.12l-1.105-1.104a.41.41 0 0 1 .58-.58l.815.814 5.455-5.45-.814-.815a.41.41 0 0 1 .58-.58l1.105 1.104c.16.16.16.42 0 .58l-6.036 6.03a.41.41 0 0 1-.29.121Z"/><path d="M25.372 23.31a.41.41 0 0 1-.31-.142c-.755-.875-1.06-.851-1.525-.814-.49.037-1.101.085-2.109-.6a.41.41 0 1 1 .462-.677c.769.522 1.165.492 1.584.458.693-.053 1.258-.006 2.209 1.098a.41.41 0 0 1-.31.677ZM19.29 30.115a.41.41 0 0 1-.293-.124c-.89-.915-1.08-1.807-1.263-2.671-.112-.53-.228-1.077-.507-1.672a.41.41 0 0 1 .742-.348c.32.68.451 1.301.568 1.85.173.818.323 1.525 1.047 2.269a.41.41 0 0 1-.293.696ZM24.14 32.638a.415.415 0 0 0-.295.123l-.887.885a.42.42 0 0 0 .592.592l.887-.887a.414.414 0 0 0 .12-.295.415.415 0 0 0-.417-.418Zm-.886 2.541a1.237 1.237 0 0 1-.876-2.113l.887-.885a1.241 1.241 0 0 1 1.752 0c.233.233.361.544.361.875 0 .331-.128.642-.361.875l-.886.886c-.242.242-.56.362-.877.362Z"/><path d="M22.082 34.008a1.239 1.239 0 0 1-.876-2.113l.887-.885a1.24 1.24 0 0 1 1.752 0c.233.233.361.544.361.875 0 .331-.128.642-.361.875a.41.41 0 0 1-.58-.58.414.414 0 0 0 .121-.295.416.416 0 0 0-.417-.418.417.417 0 0 0-.297.123l-.886.885a.418.418 0 1 0 .592.591.41.41 0 0 1 .58.58 1.231 1.231 0 0 1-.876.362Z"/><path d="M22.383 31.709a.409.409 0 0 1-.29-.7.418.418 0 0 0 0-.591.42.42 0 0 0-.592 0 .41.41 0 1 1-.58-.58 1.241 1.241 0 0 1 1.752 0c.234.233.362.544.362.875 0 .332-.128.642-.363.877a.409.409 0 0 1-.29.119Zm-1.473 1.127a1.23 1.23 0 0 1-.876-.36 1.24 1.24 0 0 1 0-1.752.41.41 0 1 1 .58.58.419.419 0 0 0 .592.591.41.41 0 0 1 .58.58 1.23 1.23 0 0 1-.876.361Z"/><path d="M20.625 29.125a.415.415 0 0 0-.296.122l-.886.886a.416.416 0 0 0 .296.713.418.418 0 0 0 .295-.122l.887-.886a.418.418 0 0 0 0-.591.414.414 0 0 0-.296-.122Zm-.887 2.54c-.331 0-.642-.128-.876-.362a1.229 1.229 0 0 1-.362-.875c0-.33.13-.641.362-.875l.887-.886a1.239 1.239 0 0 1 1.752 1.75l-.887.887a1.23 1.23 0 0 1-.876.361ZM18.841 12.454H8.234a.41.41 0 1 1 0-.82h10.607a.41.41 0 1 1 0 .82ZM21.788 14.657h-16.5a.41.41 0 1 1 0-.82h16.5a.41.41 0 0 1 0 .82ZM14.762 18.432H3.736a.41.41 0 1 1 0-.82h11.026a.41.41 0 1 1 0 .82ZM12.71 20.99H3.737a.41.41 0 1 1 0-.82h8.975a.41.41 0 0 1 0 .82ZM10.762 23.547H3.736a.41.41 0 1 1 0-.82h7.026a.41.41 0 1 1 0 .82ZM12.71 26.104H3.737a.41.41 0 1 1 0-.82h8.975a.41.41 0 0 1 0 .82ZM14.762 28.662H3.736a.41.41 0 1 1 0-.82h11.026a.41.41 0 1 1 0 .82ZM4.147 9.151h18.782V5.636H4.147v3.515Zm19.192.82H3.736a.41.41 0 0 1-.41-.41V5.226a.41.41 0 0 1 .41-.41H23.34a.41.41 0 0 1 .41.41v4.335a.41.41 0 0 1-.41.41ZM10.064 34.257H3.736a.41.41 0 1 1 0-.82h6.328a.41.41 0 0 1 0 .82ZM4.699 32.917a.41.41 0 0 1-.393-.528c.413-1.379.868-2.011 1.477-2.053.495-.033.882.361 1.174.828.808-1.173 1.671-1.186 2.29-.952a.41.41 0 1 1-.29.767c-.24-.09-.882-.333-1.65 1.213a.411.411 0 0 1-.74-.012c-.457-.995-.723-1.026-.728-1.026-.003 0-.325.06-.748 1.47a.41.41 0 0 1-.392.293Z"/><path d="M25.494 37.287H1.581a1.148 1.148 0 0 1-1.148-1.146V2.933c0-.632.515-1.146 1.148-1.146h23.913c.633 0 1.148.514 1.148 1.146v19.752a.41.41 0 0 1-.82 0V2.933a.327.327 0 0 0-.328-.326H1.581a.327.327 0 0 0-.328.326v33.208c0 .18.147.327.328.327h23.913c.18 0 .328-.147.328-.327v-1.58a.41.41 0 1 1 .82 0v1.58c0 .632-.515 1.146-1.148 1.146Z"/></g><defs><clipPath id="a"><path fill="#fff" transform="translate(.433 .761)" d="M0 0h37.581v37.552H0z"/></clipPath></defs></svg>