<svg width="102" height="102" fill="none" xmlns="http://www.w3.org/2000/svg"><path d="M91.117 19.51h3.151a1.991 1.991 0 0 0 0-3.98h-7.565c-1.1 0-1.99.89-1.99 1.99v7.565a1.991 1.991 0 0 0 3.98 0v-2.19A46.865 46.865 0 0 1 98.019 51c0 25.926-21.092 47.018-47.018 47.018C25.074 98.018 3.982 76.926 3.982 51 3.982 25.074 25.074 3.982 51 3.982c1.917 0 3.847.116 5.736.346a1.99 1.99 0 1 0 .48-3.953A51.723 51.723 0 0 0 51 0C37.377 0 24.57 5.305 14.938 14.938 5.305 24.57 0 37.378 0 51c0 13.623 5.305 26.43 14.938 36.062C24.57 96.695 37.378 102 51 102c13.623 0 26.43-5.305 36.062-14.938C96.695 77.43 102 64.622 102 51a50.833 50.833 0 0 0-10.883-31.49Z" fill="#001E54"/><path d="M21.596 30.065a1.992 1.992 0 0 0-2.748.617c-4.545 7.179-6.557 15.811-5.665 24.309a38.113 38.113 0 0 0 10.929 22.898c7.413 7.413 17.15 11.12 26.888 11.12 9.738 0 19.475-3.707 26.889-11.12 14.826-14.827 14.826-38.95 0-53.777a38.116 38.116 0 0 0-22.861-10.925c-8.482-.899-17.105 1.098-24.28 5.62a1.991 1.991 0 0 0 2.122 3.369c13.526-8.525 30.88-6.571 42.203 4.752 13.274 13.273 13.274 34.871 0 48.145-13.274 13.274-34.872 13.274-48.145 0-11.167-11.166-13.15-28.94-4.715-42.26.588-.93.311-2.16-.617-2.748Z" fill="#001E54"/><path d="M76.882 53.023h2.455a1.991 1.991 0 0 0 0-3.982h-2.455a1.991 1.991 0 0 0 0 3.982ZM20.672 50.968c0 1.099.892 1.99 1.991 1.99h2.455a1.991 1.991 0 0 0 0-3.981h-2.455c-1.1 0-1.99.891-1.99 1.99ZM53.023 25.118v-2.455a1.991 1.991 0 0 0-3.982 0v2.455a1.991 1.991 0 0 0 3.982 0ZM48.977 76.882v2.455a1.991 1.991 0 0 0 3.982 0v-2.455a1.991 1.991 0 0 0-3.982 0ZM41.02 38.205a1.992 1.992 0 0 0-2.815 2.816l6.747 6.747a6.816 6.816 0 0 0-.81 3.232A6.866 6.866 0 0 0 51 57.859 6.866 6.866 0 0 0 57.858 51a6.818 6.818 0 0 0-.81-3.232l13.614-13.614a1.991 1.991 0 0 0-2.816-2.816L54.232 44.952a6.816 6.816 0 0 0-3.232-.81 6.818 6.818 0 0 0-3.232.81l-6.747-6.747ZM53.878 51A2.88 2.88 0 0 1 51 53.877 2.88 2.88 0 0 1 48.123 51 2.88 2.88 0 0 1 51 48.123 2.88 2.88 0 0 1 53.877 51ZM26.926 26.926a2 2 0 0 0 .585-1.407c0-.524-.212-1.035-.585-1.408a2.004 2.004 0 0 0-1.407-.583c-.524 0-1.037.213-1.408.583-.37.37-.583.884-.583 1.408 0 .525.213 1.037.583 1.407.37.37.884.584 1.408.584.525 0 1.037-.214 1.407-.584ZM64.79 5.948c.527 0 1.04-.21 1.41-.583.37-.37.584-.882.584-1.408 0-.523-.213-1.037-.584-1.407a2.007 2.007 0 0 0-1.41-.583c-.523 0-1.036.213-1.406.583-.37.37-.584.884-.584 1.407 0 .526.213 1.038.584 1.408.37.372.883.583 1.407.583Z" fill="#001E54"/></svg>