<svg width="105" height="102" fill="none" xmlns="http://www.w3.org/2000/svg"><path d="M35.426 66.696c-8.793 0-15.946-10.787-15.946-24.047 0-.399.16-.781.446-1.062.286-.28.674-.438 1.078-.438h.005c1.313 0 2.412-.967 2.558-2.252l.024-.21c.291-2.563 2.163-4.67 4.658-5.242 4.8-1.104 9.611-1.094 14.298.024a6.058 6.058 0 0 1 4.573 4.936l.101.617c.204 1.232 1.272 2.127 2.541 2.127.842 0 1.623.67 1.623 1.5 0 13.26-7.159 24.047-15.959 24.047ZM22.551 43.938c.409 11.008 6.028 19.758 12.875 19.758 6.851 0 12.474-8.744 12.889-19.745-2.13-.561-3.74-2.262-4.102-4.449l-.101-.62c-.2-1.217-1.118-2.22-2.282-2.498-4.218-1.004-8.555-1.011-12.89-.018-1.24.284-2.173 1.352-2.32 2.657l-.024.21c-.26 2.28-1.898 4.106-4.045 4.705Z" fill="#001E54"/><path d="M21.002 44.149a1.52 1.52 0 0 1-1.488-1.185l-1.067-4.891a1.293 1.293 0 0 1-.025-.153c-.461-4.167.5-7.671 2.86-10.412 4.383-5.092 12.223-5.77 13.751-5.853 4.23-.293 7.653 1.003 9.605 3.622l.915 1.228a7.403 7.403 0 0 1 5.691 2.644 7.15 7.15 0 0 1 1.549 6.003l-1.535 7.782a1.517 1.517 0 0 1-1.786 1.187 1.5 1.5 0 0 1-1.205-1.758l1.535-7.782a4.197 4.197 0 0 0-.909-3.523 4.337 4.337 0 0 0-3.338-1.552c-.97 0-1.89-.46-2.461-1.229l-.913-1.224c-1.773-2.38-5.124-2.535-6.96-2.404-1.326.073-8.037.644-11.615 4.8-1.784 2.071-2.512 4.787-2.164 8.071l1.05 4.814a1.5 1.5 0 0 1-1.169 1.781 1.51 1.51 0 0 1-.321.034ZM67.337 100.5H3.52c-.842 0-1.524-.67-1.524-1.5V84.856c0-4.745 2.903-8.932 7.396-10.666l10.21-3.932c3.316-1.284 5.46-4.375 5.46-7.872v-1.935c0-.829.68-1.5 1.523-1.5.842 0 1.523.671 1.523 1.5v1.935c0 4.738-2.902 8.924-7.394 10.666l-10.21 3.931c-3.317 1.28-5.46 4.371-5.46 7.873V97.5h60.77V84.856c0-3.501-2.143-6.592-5.46-7.874l-10.207-3.929c-4.495-1.743-7.397-5.93-7.397-10.667v-1.935c0-.829.681-1.5 1.523-1.5.842 0 1.524.671 1.524 1.5v1.935c0 3.497 2.144 6.588 5.463 7.874l10.205 3.928c4.494 1.736 7.397 5.923 7.397 10.668V99c0 .83-.682 1.5-1.524 1.5Z" fill="#001E54"/><path d="M35.637 74.123c-4.13 0-8.268-1.424-11.566-4.278a1.482 1.482 0 0 1-.138-2.117 1.539 1.539 0 0 1 2.15-.136c5.433 4.7 13.63 4.705 19.07.005l1.012 1.122.952 1.172-.008.005c-3.258 2.816-7.361 4.227-11.472 4.227Z" fill="#001E54"/><path d="M32.647 100.5a1.52 1.52 0 0 1-1.469-1.106l-8.242-29.82a1.496 1.496 0 0 1 1.07-1.841 1.521 1.521 0 0 1 1.87 1.053l8.242 29.82c.222.8-.257 1.624-1.07 1.841-.134.037-.269.053-.401.053ZM38.575 100.5c-.132 0-.266-.016-.398-.051a1.5 1.5 0 0 1-1.074-1.84l8.18-29.82a1.528 1.528 0 0 1 1.87-1.058 1.5 1.5 0 0 1 1.074 1.84l-8.182 29.82a1.52 1.52 0 0 1-1.47 1.109ZM67.361 41.357c-.666 0-1.33-.182-1.92-.542a3.56 3.56 0 0 1-1.73-3.056v-5.178h-1.826c-2.52 0-4.57-2.019-4.57-4.5V6c0-2.481 2.05-4.5 4.57-4.5h36.09c2.521 0 4.571 2.019 4.571 4.5v22.081c0 2.482-2.05 4.5-4.57 4.5H86.158L68.987 40.98a3.692 3.692 0 0 1-1.626.378ZM61.885 4.5c-.84 0-1.524.672-1.524 1.5v22.081c0 .828.683 1.5 1.524 1.5h3.35c.842 0 1.524.671 1.524 1.5v6.678c0 .289.18.441.285.506a.606.606 0 0 0 .587.027l17.493-8.554c.211-.103.443-.157.678-.157h12.173c.84 0 1.524-.672 1.524-1.5V6c0-.828-.683-1.5-1.524-1.5h-36.09Z" fill="#001E54"/><path d="M85.802 25.081H74.058c-.842 0-1.524-.67-1.524-1.5 0-.829.682-1.5 1.524-1.5h11.744c.842 0 1.524.671 1.524 1.5 0 .83-.682 1.5-1.524 1.5ZM93.405 18.54h-26.95c-.842 0-1.523-.67-1.523-1.5 0-.829.681-1.5 1.523-1.5h26.95c.842 0 1.523.671 1.523 1.5 0 .83-.681 1.5-1.523 1.5ZM85.802 12H74.058c-.842 0-1.524-.67-1.524-1.5S73.216 9 74.058 9h11.744c.842 0 1.524.67 1.524 1.5s-.682 1.5-1.524 1.5Z" fill="#001E54"/></svg>