<svg width="38" height="39" fill="none" xmlns="http://www.w3.org/2000/svg"><path d="M16.75 9.298h-3.9a.486.486 0 0 0-.485.485v3.896c0 .268.217.486.486.486h3.898a.486.486 0 0 0 .486-.486V9.783a.486.486 0 0 0-.486-.485Zm-.487 3.896h-2.927v-2.925h2.927v2.925ZM26.874 15.455H10.942a.486.486 0 1 0 0 .97h15.932a.485.485 0 1 0 0-.97ZM26.874 17.465H10.942a.485.485 0 1 0 0 .97h15.932a.485.485 0 1 0 0-.97ZM17.979 29.777H10.94a.485.485 0 1 0 0 .97h7.038a.486.486 0 1 0 0-.97ZM17.98 31.731h-7.038a.486.486 0 1 0 0 .971h7.037a.486.486 0 1 0 0-.97ZM4.891 34.45a.486.486 0 1 0 0-.971.486.486 0 0 0 0 .971Z" fill="#fff"/><path d="m35.464 35.043-.802-3.164a.744.744 0 0 0-.404-.49l-.28-1.576.15-.831a.485.485 0 0 0-.956-.173l-.165.917a.484.484 0 0 0 0 .17l.277 1.56-3.03.749-.328-1.283a.487.487 0 0 0-.088-.18l-3.024-3.871a.482.482 0 0 1-.101-.34.482.482 0 0 0 0-.089l-.287-3.082a.501.501 0 0 1 .03-.108c.17-.43.297-1.347.457-2.595.058-.45.122-.952.166-1.171a.82.82 0 0 1 .238-.104c.301.162.596.667.558.98a.496.496 0 0 0-.003.076l.108 2.869a.486.486 0 0 0 .063.222c.411.719 1.054 1.035 1.72.847.528-.149.935-.602.961-1.054a.504.504 0 0 0 .003-.044v-7.132l.321.192 1.792 3.25 1.212 4.347-.506 2.803a.485.485 0 0 0 .956.173l.517-2.864a.75.75 0 0 0-.032-.377l-1.226-4.397a.48.48 0 0 0-.043-.104l-1.882-3.414a.486.486 0 0 0-.177-.183l-.932-.556V3.32a.485.485 0 0 0-.486-.485H7.574a.485.485 0 0 0-.486.485v4.41a.485.485 0 0 0 .971 0v-.56h19.146a.485.485 0 1 0 0-.97H8.06V3.807h21.696V6.2h-.477a.486.486 0 1 0 0 .97h.477v16.086a.452.452 0 0 1-.326.199c-.202.02-.368-.142-.483-.313l-.102-2.708c.066-.753-.5-1.685-1.21-1.975-.32-.13-.695.01-.89.104-.22.106-.498.292-.58.578a3.055 3.055 0 0 0-.069.333H11.72a3.063 3.063 0 0 0-.07-.333c-.082-.286-.36-.472-.578-.578-.196-.095-.572-.234-.892-.104-.71.29-1.275 1.222-1.21 1.975l-.101 2.708c-.115.17-.28.333-.483.313a.452.452 0 0 1-.327-.2V9.827a.485.485 0 0 0-.971 0v5.19l-.932.556a.487.487 0 0 0-.177.183l-1.883 3.414a.487.487 0 0 0-.042.104L2.828 23.67a.755.755 0 0 0-.031.382l1.04 5.76-.28 1.577a.744.744 0 0 0-.404.49l-.802 3.165a.74.74 0 0 0 .134.64.74.74 0 0 0 .588.286h31.67a.74.74 0 0 0 .587-.287.74.74 0 0 0 .134-.64Zm-9.503-14.597-.011.087c-.037.285-.08.621-.127.952H11.991c-.046-.331-.09-.667-.126-.951l-.011-.088H25.96ZM3.762 23.935l1.213-4.347 1.792-3.25.32-.192v7.132c0 .015.002.03.003.044.026.452.434.905.962 1.054.665.188 1.309-.129 1.72-.847a.485.485 0 0 0 .063-.222l.107-2.87a.483.483 0 0 0-.003-.075c-.037-.313.258-.818.559-.98a.82.82 0 0 1 .237.104c.045.219.11.721.167 1.17.16 1.249.286 2.165.457 2.596.014.034.023.07.03.108l-.287 3.082a.482.482 0 0 0 0 .088.481.481 0 0 1-.1.34l-3.026 3.873a.485.485 0 0 0-.087.179l-.328 1.283-3.03-.748.277-1.56a.486.486 0 0 0 0-.171l-1.046-5.791Zm5.314 11.064H3.364l.675-2.664 5.036 1.243V35Zm18.691-1.598v1.598h-17.72v-1.598a.743.743 0 0 0-.566-.723l-.977-.24.3-1.178 2.963-3.793a1.45 1.45 0 0 0 .306-.975l.287-3.093a.48.48 0 0 0 0-.088 1.486 1.486 0 0 0-.098-.417 2.849 2.849 0 0 1-.113-.438h13.517a2.844 2.844 0 0 1-.114.439 1.483 1.483 0 0 0-.098.416.48.48 0 0 0 0 .088l.288 3.093c-.02.351.087.696.305.976l2.963 3.792.3 1.177-.976.241a.743.743 0 0 0-.567.723Zm.972 1.598v-1.42l5.037-1.244L34.45 35H28.74Z" fill="#fff"/><path d="M32.924 34.45a.486.486 0 1 0 0-.971.486.486 0 0 0 0 .97Z" fill="#fff"/></svg>