<svg width="102" height="102" fill="none" xmlns="http://www.w3.org/2000/svg"><g clip-path="url(#a)" fill="#001E54"><path d="M100.406 86.063H97.93c.574-.965.88-2.066.886-3.188V54.187a6.382 6.382 0 0 0-6.375-6.374H55.785c-.84 0-1.671.167-2.446.491a17.426 17.426 0 0 0-3.929-.492h-5.578v-1.224a15.137 15.137 0 0 0 6.167-9.932h.208a6.382 6.382 0 0 0 6.375-6.375V23.11a21.516 21.516 0 1 0-43.032 0v7.172a6.382 6.382 0 0 0 6.375 6.375h.208a15.14 15.14 0 0 0 6.167 9.932v1.224h-5.578A17.551 17.551 0 0 0 3.191 65.344V81.28c.006 1.73.58 3.41 1.635 4.781H1.594A1.594 1.594 0 0 0 0 87.656v11.156a1.594 1.594 0 0 0 1.594 1.594h98.812A1.595 1.595 0 0 0 102 98.812V87.656a1.594 1.594 0 0 0-1.594-1.594ZM92.441 51a3.19 3.19 0 0 1 3.188 3.188v28.687a3.19 3.19 0 0 1-3.188 3.188H52.598V54.186A3.19 3.19 0 0 1 55.785 51h36.656ZM44.518 86.063a12.642 12.642 0 0 0-1.614-4.782h6.506v4.781h-4.892Zm-11.045-7.825a9.578 9.578 0 0 1 7.835 7.825h-7.835v-7.825Zm16.734-44.77v-6.374a3.188 3.188 0 1 1 0 6.375ZM35.067 4.782A18.348 18.348 0 0 1 53.393 23.11v1.684a6.3 6.3 0 0 0-3.187-.887h-.811l-5.68-7.349a1.595 1.595 0 0 0-2.43-.109A23.374 23.374 0 0 1 24.2 23.906h-4.273a6.302 6.302 0 0 0-3.188.887V23.11A18.349 18.349 0 0 1 35.066 4.781Zm-18.329 25.5a3.19 3.19 0 0 1 3.188-3.187v6.375a3.191 3.191 0 0 1-3.188-3.188Zm6.375 3.985v-7.172H24.2a26.586 26.586 0 0 0 18.105-7.153l4.716 6.103v8.222a11.953 11.953 0 1 1-23.907 0Zm11.953 15.14a15.039 15.039 0 0 0 5.578-1.078v1.875a5.578 5.578 0 1 1-11.156 0v-1.875a15.04 15.04 0 0 0 5.578 1.078ZM6.38 81.281V65.344A14.36 14.36 0 0 1 20.723 51h5.618a8.761 8.761 0 0 0 17.45 0h5.62c.281 0 .569.041.854.06a6.297 6.297 0 0 0-.855 3.127v23.907h-9.126a12.683 12.683 0 0 0-8.405-3.188H15.94a1.594 1.594 0 0 0 0 3.188h14.344v7.969H11.16A4.787 4.787 0 0 1 6.38 81.28ZM98.812 97.22H3.189V89.25h95.624v7.969Z"/><path d="M74.113 76.5a7.97 7.97 0 1 0-7.969-7.969 7.978 7.978 0 0 0 7.97 7.969Zm0-12.75a4.781 4.781 0 1 1 0 9.562 4.781 4.781 0 0 1 0-9.562Z"/></g><defs><clipPath id="a"><path fill="#fff" d="M0 0h102v102H0z"/></clipPath></defs></svg>