<svg width="36" height="37" fill="none" xmlns="http://www.w3.org/2000/svg"><g clip-path="url(#a)"><path d="M35.556 3.65c-.074-.185-.184-.332-.332-.406l-3.058-1.546c-.147-.073-.331-.073-.515-.037L19.197 5.674a.368.368 0 0 0-.221.479.369.369 0 0 0 .479.22l12.38-4.012 2.984 1.546-1.4 2.725-.921-.7a.62.62 0 0 0-.663-.074.708.708 0 0 0-.406.553l-.184 1.14-1.4.443-1.4-.884c-.184-.11-.405-.147-.59-.073-.22.073-.368.22-.405.441l-.479 1.436-1.51.479-1.143-.884a.72.72 0 0 0-.59-.147c-.22.037-.368.22-.478.405l-.663 1.546-1.732.552a.368.368 0 0 0-.221.479.369.369 0 0 0 .479.22l1.732-.551a.73.73 0 0 0 .405-.405l.663-1.51 1.105.847a.715.715 0 0 0 .664.11l1.547-.515a.664.664 0 0 0 .442-.442l.442-1.399 1.364.884c.184.11.368.11.552.073l1.437-.478a.673.673 0 0 0 .48-.552l.147-1.068.92.663c.148.11.37.147.553.11a.634.634 0 0 0 .442-.368l1.437-2.835c.148-.11.148-.294.111-.479ZM19.418 8.655l12.49-4.05a.368.368 0 0 0 .221-.478.369.369 0 0 0-.478-.22L19.123 7.956C17.392 4.09 12.97 2.03 8.807 3.392c0 0-.037 0-.037.037C4.35 4.9 1.917 9.65 3.354 14.105c.11.368.258.7.405 1.031-.516 1.473-.81 3.35-.81 5.302 0 2.098.331 4.086.884 5.632.332.847.7 1.547 1.142 2.025a2.154 2.154 0 0 0-.074.479c0 1.104.922 2.025 2.027 2.025s2.026-.92 2.026-2.025a2.044 2.044 0 0 0-2.026-2.025c-.663 0-1.216.294-1.584.773-.295-.405-.553-.92-.811-1.546-.553-1.473-.847-3.387-.847-5.375 0-1.583.184-3.13.552-4.418a8.944 8.944 0 0 0 4.016 3.35c.184.074.406 0 .48-.22a.354.354 0 0 0-.222-.48 7.689 7.689 0 0 1-4.495-4.822c-1.29-4.013.921-8.394 5.011-9.72 0 0 .037 0 .037-.037a7.75 7.75 0 0 1 9.727 5.007c1.326 4.087-.921 8.431-4.974 9.757h-.037a7.342 7.342 0 0 1-2.358.368c-.221 0-.369.147-.369.368 0 .22.148.368.369.368.884 0 1.768-.147 2.616-.405 0 0 .037 0 .037-.037 4.421-1.472 6.853-6.222 5.416-10.676-.037-.037-.074-.074-.074-.148ZM6.928 29.862a1.252 1.252 0 0 1-1.253-1.178c.295.184.627.295.958.295.516 0 1.069-.258 1.51-.736.038.11.074.22.074.368 0 .7-.59 1.251-1.29 1.251Zm0-2.54c.295 0 .59.11.81.295-.294.331-.663.625-1.105.625-.258 0-.516-.11-.774-.294a1.195 1.195 0 0 1 1.069-.626ZM11.46 7.478a.368.368 0 0 0-.221.479l2.1 6.516a.369.369 0 0 0 .479.221.368.368 0 0 0 .22-.478l-2.1-6.517a.369.369 0 0 0-.478-.22Zm3.721 4.934a.368.368 0 0 0 .221-.479L14.37 8.73a.369.369 0 0 0-.478-.22.368.368 0 0 0-.222.478l1.032 3.203a.446.446 0 0 0 .479.22ZM9.618 25.37c.552-1.878.736-4.087.626-5.964-.074-1.878-.442-3.645-.995-4.97.663-.626.958-1.584.663-2.504a2.412 2.412 0 0 0-3.021-1.546c-1.29.405-1.953 1.804-1.547 3.019A2.398 2.398 0 0 0 8.66 14.84c.479 1.252.81 2.872.884 4.603a17.769 17.769 0 0 1-.516 5.375l-1.584-1.473a.785.785 0 0 0-1.032 0l-1.29 1.215a.356.356 0 0 0 0 .515.356.356 0 0 0 .516 0l1.327-1.215 5.969 5.596h-1.069c-.221 0-.368.148-.368.369v4.602a.37.37 0 0 1-.369.368H2.764a.37.37 0 0 1-.368-.368v-4.566c0-.22-.147-.368-.368-.368H.959l2.321-2.172a.356.356 0 0 0 0-.515.356.356 0 0 0-.516 0l-2.32 2.172a.74.74 0 0 0-.185.81.72.72 0 0 0 .7.478h.7v4.234c0 .626.48 1.105 1.105 1.105h8.327c.627 0 1.106-.479 1.106-1.105v-4.27h.7c.294 0 .59-.184.7-.48a.74.74 0 0 0-.184-.809l-3.795-3.571ZM7.112 11.086c.884-.294 1.805.184 2.1 1.068.148.405.11.883-.11 1.289-.037.11-.11.184-.185.294-.626-1.178-1.436-1.84-2.284-1.84-.184 0-.331.036-.516.073.221-.442.59-.737.995-.884Zm-1.068 2.136c-.037-.11-.074-.221-.074-.332a1.19 1.19 0 0 1 .663-.22c.59 0 1.216.552 1.695 1.546-.921.441-1.99-.11-2.284-.994Z" fill="#fff"/></g><defs><clipPath id="a"><path fill="#fff" transform="translate(.222 .925)" d="M0 0h35.371v35.343H0z"/></clipPath></defs></svg>