<svg width="36" height="37" fill="none" xmlns="http://www.w3.org/2000/svg"><g clip-path="url(#a)" fill="#fff"><path d="M31.466 9.732v-5.89a.59.59 0 0 0-.59-.59H28.52v1.179h1.768v5.301h1.18ZM4.35 18.568v14.726c0 .325.264.589.59.589h23.579a.59.59 0 0 0 .59-.59v-4.122h-1.18v3.534H5.53V18.568h-1.18ZM23.458.956c-.019-.008-.036-.013-.055-.02a.587.587 0 0 0-.153-.03c-.013-.002-.024-.009-.036-.009H4.939a.59.59 0 0 0-.59.589v1.178h1.18v-.589h17.095v4.712a.59.59 0 0 0 .59.59h4.716v2.945h1.178V6.787c0-.012-.006-.023-.007-.036a.574.574 0 0 0-.03-.153c-.007-.019-.011-.036-.02-.055a.585.585 0 0 0-.117-.172L23.627 1.07a.591.591 0 0 0-.17-.114Zm3.638 5.242h-3.293v-3.29l3.293 3.29Z"/><path d="M13.781 25.636v4.713a.59.59 0 0 0 .59.589h7.663V29.76h-7.073v-3.535h2.947v-1.178H14.37a.59.59 0 0 0-.59.59Z"/><path d="M16.14 27.403h3.537v1.178H16.14v-1.178Z"/><path d="M31.466 10.91a4.13 4.13 0 0 0-4.126 4.124v.059l-3.007 3.171-1.882-1.88a.59.59 0 0 0-.833 0l-5.306 5.3a.589.589 0 0 0 0 .834l8.253 8.246c.23.23.603.23.834 0l1.768-1.767 3.12-3.117v9.181H7.297v1.178h23.58a.59.59 0 0 0 .59-.589V21.513h-1.18v2.702l-2.055-2.054 3.175-3.004h.06a4.125 4.125 0 0 0 4.126-4.123 4.125 4.125 0 0 0-4.127-4.123Zm-6.484 18.606-7.42-7.414.935-.934 7.42 7.414-.935.934Zm4.472-4.468-2.704 2.7-7.419-7.413 2.703-2.701 1.488 1.487-1.326 1.398a.589.589 0 0 0 .011.825l2.948 2.945a.59.59 0 0 0 .821.011l1.4-1.325 2.078 2.072Zm2.012-7.069h-.294a.59.59 0 0 0-.406.161l-5.183 4.905-2.134-2.132 4.91-5.18a.589.589 0 0 0 .16-.405v-.294a2.947 2.947 0 0 1 2.947-2.945 2.946 2.946 0 1 1 0 5.89ZM11.424 17.979h5.895v1.178h-5.895V17.98ZM7.887 20.335h7.074v1.178H7.887v-1.178ZM13.192 15.623h7.074V16.8h-7.074v-1.178ZM7.887 22.691h3.537v1.178H7.887v-1.178ZM7.887 25.047h4.716v1.178H7.887v-1.178Z"/><path d="M7.887 27.403h4.716v1.178H7.887v-1.178ZM7.887 29.76h4.716v1.178H7.887V29.76ZM7.887 17.979h2.358v1.178H7.887V17.98ZM12.602 22.691h2.358v1.178h-2.358v-1.178ZM14.96 12.678h5.896v1.178H14.96v-1.178Z"/><path d="M7.297 17.39a7.072 7.072 0 0 0 7.062-6.821c.318.266.73.395 1.143.357a1.6 1.6 0 0 0 2.454 0 1.6 1.6 0 0 0 1.736-1.734 1.596 1.596 0 0 0 0-2.453 1.597 1.597 0 0 0-1.736-1.734 1.599 1.599 0 0 0-2.454 0 1.6 1.6 0 0 0-1.736 1.734 1.532 1.532 0 0 0-.235.243A7.076 7.076 0 0 0 5.016 3.63a7.068 7.068 0 0 0 2.281 13.76Zm7.349-9.814a.59.59 0 0 0 .335-.807.413.413 0 0 1 .551-.55.591.591 0 0 0 .808-.335.413.413 0 0 1 .778 0 .589.589 0 0 0 .809.334.413.413 0 0 1 .55.551.59.59 0 0 0 .335.807.412.412 0 0 1 0 .778.59.59 0 0 0-.335.808.396.396 0 0 1-.08.47.402.402 0 0 1-.473.082.589.589 0 0 0-.808.335.413.413 0 0 1-.778 0 .588.588 0 0 0-.808-.333.414.414 0 0 1-.551-.55.59.59 0 0 0-.335-.808.412.412 0 0 1 0-.778l.002-.004ZM7.297 4.431a5.893 5.893 0 0 1 5.895 5.89c0 3.254-2.639 5.89-5.895 5.89a5.893 5.893 0 0 1-5.895-5.89 5.899 5.899 0 0 1 5.895-5.89Z"/><path d="M4.522 13.683c.23.23.604.23.834 0l5.895-5.89-.834-.833-5.478 5.474-1.352-1.35-.833.832 1.768 1.767Z"/></g><defs><clipPath id="a"><path fill="#fff" transform="translate(.222 .896)" d="M0 0h35.371v35.343H0z"/></clipPath></defs></svg>