<svg width="38" height="39" fill="none" xmlns="http://www.w3.org/2000/svg"><g clip-path="url(#a)"><path d="M17.622 16.692h2.983c.284 0 .514-.23.514-.514v-2.981a.514.514 0 0 0-.514-.514h-2.983a.514.514 0 0 0-.514.514v2.981c0 .284.23.514.514.514Zm.514-2.982h1.956v1.955h-1.956V13.71Zm5.349 2.982h2.984c.283 0 .513-.23.513-.514v-2.981a.514.514 0 0 0-.513-.514h-2.984a.514.514 0 0 0-.514.514v2.981c0 .284.23.514.514.514Zm.514-2.982h1.956v1.955h-1.956V13.71Zm-6.377 8.84h2.983c.284 0 .514-.23.514-.513v-2.982a.514.514 0 0 0-.514-.513h-2.983a.514.514 0 0 0-.514.513v2.982c0 .283.23.513.514.513Zm.514-2.981h1.956v1.954h-1.956V19.57Zm-3.394-1.027H11.76a.514.514 0 0 0-.514.513v2.982c0 .283.23.513.514.513h2.983c.284 0 .514-.23.514-.513v-2.982a.514.514 0 0 0-.514-.513Zm-.514 2.981h-1.956V19.57h1.957v1.954Zm.514-8.84H11.76a.514.514 0 0 0-.514.514v2.981c0 .284.23.514.514.514h2.983c.284 0 .514-.23.514-.514v-2.981a.514.514 0 0 0-.514-.514Zm-.514 2.982h-1.956V13.71h1.957v1.955Zm.514 8.736H11.76a.514.514 0 0 0-.514.513v2.981c0 .284.23.514.514.514h2.983c.284 0 .514-.23.514-.514v-2.981a.514.514 0 0 0-.514-.514Zm-.514 2.981h-1.956v-1.955h1.957v1.955ZM8.88 12.683H5.895a.514.514 0 0 0-.513.514v2.981c0 .284.23.514.513.514H8.88c.284 0 .514-.23.514-.514v-2.981a.514.514 0 0 0-.514-.514Zm-.514 2.982H6.41V13.71h1.956v1.955Zm.514 2.877H5.895a.514.514 0 0 0-.513.513v2.982c0 .283.23.513.513.513H8.88c.284 0 .514-.23.514-.513v-2.982a.514.514 0 0 0-.514-.513Zm-.514 2.981H6.41V19.57h1.956v1.954Zm.514 2.878H5.895a.514.514 0 0 0-.513.513v2.981c0 .284.23.514.513.514H8.88c.284 0 .514-.23.514-.514v-2.981a.514.514 0 0 0-.514-.514Zm-.514 2.981H6.41v-1.955h1.956v1.955Zm25.567-5.67a.513.513 0 0 1 .188-.7l1.647-.951a.514.514 0 0 1 .514.89l-1.647.95a.512.512 0 0 1-.702-.189Zm-2.311-2.378 1.003-1.736a.514.514 0 0 1 .89.513l-1.003 1.736a.514.514 0 0 1-.89-.513Zm5.627 5.245c0 .284-.23.514-.514.514h-2.006a.514.514 0 1 1 0-1.027h2.006c.284 0 .514.23.514.513Zm-4.869.385c.395-.275.678-.676.804-1.147a2.033 2.033 0 0 0-.205-1.554 2.037 2.037 0 0 0-1.602-1.017V7.223a2.981 2.981 0 0 0-2.974-2.972l-2.009-.005V1.935a.514.514 0 0 0-.514-.514h-3.163a.514.514 0 0 0-.513.514v2.303l-3.926-.009V1.935a.514.514 0 0 0-.514-.514h-3.162a.514.514 0 0 0-.514.514V4.22l-3.926-.009V1.935a.514.514 0 0 0-.513-.514H6.485a.514.514 0 0 0-.514.514V4.21H3.963c-1.64 0-2.975 1.351-2.975 3.012V28.42a2.977 2.977 0 0 0 2.975 2.972h12.33a3.335 3.335 0 0 0 2.231 1.947 3.33 3.33 0 0 0 2.548-.332l.045-.026 3.175 4.245a1.057 1.057 0 0 0 .866.427c.267 0 .514-.095.717-.28l.677-.613c.412-.374.471-.995.137-1.445l-1.163-1.564.306-.223a.977.977 0 0 0 .389-.65 1.12 1.12 0 0 0-.21-.828l-.489-.658h2.88c1.078 0 2.061-.599 2.583-1.505a1.843 1.843 0 0 0 2.42.53 1.84 1.84 0 0 0 .674-2.512l-1.7-2.94Zm-.29-2.188a1.015 1.015 0 0 1-.228 1.292l-1.005-1.74c.456-.166.981.014 1.232.448ZM23.23 2.448h2.135v4.579H23.23V2.448Zm-8.116 0h2.136v4.579h-2.136V2.448ZM7 2.448h2.135v4.579H6.999V2.448Zm-3.036 2.79H5.97V7.54c0 .284.23.513.514.513h3.163c.283 0 .513-.23.513-.513v-2.3l3.926.007V7.54c0 .284.23.513.514.513h3.162c.284 0 .514-.23.514-.513V5.256l3.926.008V7.54c0 .284.23.513.513.513h3.163c.284 0 .514-.23.514-.513V5.273l2.007.004a1.952 1.952 0 0 1 1.948 1.946V9.7H2.016V7.223c0-1.076.891-1.985 1.947-1.985ZM16.15 29.233a3.37 3.37 0 0 0-.107 1.133H3.963a1.949 1.949 0 0 1-1.947-1.946V10.726h28.332v10.7l-.01.005-1.7-2.941a1.843 1.843 0 0 0-3.215.052h-1.938a.514.514 0 0 0-.514.513v2.982c0 .283.23.513.514.513h.483a20.148 20.148 0 0 1-2.849 2.797v-.433a.514.514 0 0 0-.514-.514h-2.983a.514.514 0 0 0-.514.514v2.726a3.34 3.34 0 0 0-.957 1.593Zm6.971 1.15-2.11-3.651c2.165-1.622 3.921-3.486 5.049-5.35l4.221 7.307c-2.179.044-4.672.632-7.16 1.694Zm-3.03-4.533a.511.511 0 0 0-.149.057l-1.808 1.043v-1.523h1.957v.423Zm3.907-4.327V19.57h1.213c.022.26.1.519.24.76l.014.025c-.21.389-.45.78-.72 1.17H24Zm-6.626 9.743a2.311 2.311 0 0 1-.23-1.767 2.313 2.313 0 0 1 1.084-1.416l1.785-1.03 2.332 4.035-1.786 1.03a2.335 2.335 0 0 1-3.185-.852Zm8.488 4.733-.677.614c-.015.014-.018.015-.038.013-.022-.002-.024-.004-.031-.014l-3.102-4.148.893-.514 2.958 3.978c.015.02.02.05-.003.071Zm-2.185-4.736.36-.147 1.15 1.546a.103.103 0 0 1 .02.052l-.293.213-1.237-1.664Zm4.725-.897h-2.168c1.252-.354 2.467-.568 3.598-.632-.362.39-.876.632-1.43.632Zm4.49-.838a.806.806 0 0 1-.616.08.806.806 0 0 1-.494-.378l-5.44-9.415a.812.812 0 0 1 1.407-.812l5.44 9.416a.812.812 0 0 1-.297 1.109Z" fill="#fff"/></g><defs><clipPath id="a"><path fill="#fff" transform="translate(.327 .761)" d="M0 0h37.581v37.552H0z"/></clipPath></defs></svg>