<svg width="102" height="102" fill="none" xmlns="http://www.w3.org/2000/svg"><g clip-path="url(#a)" fill="#001E54"><path d="M16.948 90.63a2.006 2.006 0 0 0-1.408-.583c-.524 0-1.038.213-1.409.584-.37.37-.583.884-.583 1.408 0 .524.213 1.038.583 1.409.37.37.885.584 1.409.584s1.038-.214 1.408-.584c.37-.37.584-.885.584-1.409s-.213-1.038-.584-1.408ZM93.538 36.445a2.003 2.003 0 0 0-1.408-.584c-.524 0-1.038.213-1.409.584-.37.37-.584.884-.584 1.408 0 .524.214 1.038.584 1.408.37.371.885.584 1.409.584a2 2 0 0 0 1.994-1.992c0-.524-.214-1.038-.586-1.408Z"/><path d="M101.415.584A1.991 1.991 0 0 0 100.006 0L51 .003c-1.1 0-1.992.892-1.992 1.992v5.697l-18.884 5.06a1.992 1.992 0 0 0-1.409 2.44l9.787 36.525-8.466 8.466a5.974 5.974 0 0 0-4.934-2.608H5.978A5.983 5.983 0 0 0 0 63.552v32.471A5.983 5.983 0 0 0 5.978 102h19.124c2.8 0 5.155-1.936 5.8-4.538l2.37 2.066A10.037 10.037 0 0 0 39.868 102h60.138c1.1 0 1.992-.892 1.992-1.992V1.992a1.995 1.995 0 0 0-.584-1.408Zm-74.32 95.44a1.995 1.995 0 0 1-1.993 1.992H5.978a1.994 1.994 0 0 1-1.993-1.992V63.552c0-1.099.894-1.992 1.993-1.992h7.57v22.949a1.992 1.992 0 0 0 3.984 0v-22.95h7.57c1.099 0 1.992.894 1.992 1.993v32.472Zm5.984-79.94 15.929-4.267v7.382l-1.336.357a1.992 1.992 0 0 0-1.408 2.44 5.37 5.37 0 0 1-3.793 6.57 1.991 1.991 0 0 0-1.408 2.444l7.766 28.755H44.83l-2.06-8.062a1.988 1.988 0 0 0-.334-.698l-9.357-34.92Zm15.929 12.25v16.811l-3.634-13.454a9.333 9.333 0 0 0 3.634-3.356Zm28.62 69.682h-37.76a6.054 6.054 0 0 1-3.979-1.492l-4.81-4.195V64.775l8.697-8.697 1.577 6.172a1.992 1.992 0 0 0 1.93 1.498l39.168.003a2.792 2.792 0 0 1 2.789 2.789 2.792 2.792 0 0 1-2.79 2.789H62.382a1.992 1.992 0 0 0 0 3.984h26.305a2.792 2.792 0 0 1 2.79 2.79 2.792 2.792 0 0 1-2.79 2.788H62.381a1.992 1.992 0 0 0 0 3.985h22.043a2.792 2.792 0 0 1 2.789 2.789 2.792 2.792 0 0 1-2.79 2.789H62.382a1.992 1.992 0 0 0 0 3.984h15.247a2.792 2.792 0 0 1 2.79 2.79 2.792 2.792 0 0 1-2.79 2.788Zm20.386 0H83.798a6.732 6.732 0 0 0 .603-2.79c0-.993-.216-1.937-.603-2.788h.626a6.78 6.78 0 0 0 6.773-6.774c0-1.09-.26-2.118-.72-3.031 2.869-.788 4.982-3.417 4.982-6.531 0-1.51-.497-2.908-1.337-4.035v-25.25a1.992 1.992 0 0 0-3.984 0v22.67a6.775 6.775 0 0 0-1.452-.158h-.066a6.73 6.73 0 0 0 .604-2.79 6.78 6.78 0 0 0-6.773-6.772h-3.203c3.4-1.459 5.789-4.839 5.789-8.767 0-5.257-4.277-9.534-9.534-9.534-5.257 0-9.534 4.277-9.534 9.534 0 3.928 2.388 7.308 5.788 8.767h-10.89v-37.88a9.378 9.378 0 0 0 7.143-7.143h14.985a9.378 9.378 0 0 0 7.143 7.143v6.194a1.992 1.992 0 0 0 3.984 0v-7.973c0-1.1-.892-1.992-1.992-1.992a5.37 5.37 0 0 1-5.364-5.364c0-1.1-.892-1.992-1.992-1.992H66.231c-1.1 0-1.992.892-1.992 1.992a5.37 5.37 0 0 1-5.363 5.364c-1.1 0-1.993.892-1.993 1.992v39.658h-3.89V3.986l45.021-.002v94.032ZM75.504 56.55c-3.061 0-5.55-2.49-5.55-5.55 0-3.06 2.49-5.55 5.55-5.55 3.06 0 5.549 2.49 5.549 5.55 0 3.06-2.49 5.55-5.55 5.55Z"/></g><defs><clipPath id="a"><path fill="#fff" d="M0 0h102v102H0z"/></clipPath></defs></svg>