<svg width="36" height="37" fill="none" xmlns="http://www.w3.org/2000/svg"><g clip-path="url(#a)" fill="#fff"><path d="M13.914 15.993a2.864 2.864 0 0 0-1.85-2.67L9.35 12.309v-.483a3.42 3.42 0 0 0 .956-1.441 2.28 2.28 0 0 0 1.897-2.242v-2.28A5.138 5.138 0 0 0 7.068.732a5.138 5.138 0 0 0-5.134 5.13v2.28a2.28 2.28 0 0 0 1.897 2.242c.19.56.523 1.053.955 1.44v.484l-2.713 1.016a2.864 2.864 0 0 0-1.85 2.669v1.84h13.691v-1.84Zm-6.846-4.43a2.283 2.283 0 0 1-2.282-2.28V6.948a3.349 3.349 0 0 0 1.78-.92l.005-.005a6.193 6.193 0 0 0 2.78.938v2.32a2.283 2.283 0 0 1-2.283 2.28Zm3.423-2.44V7.162c.34.198.57.562.57.982 0 .42-.23.783-.57.98ZM7.068 1.873a3.997 3.997 0 0 1 3.994 3.99v.317a2.259 2.259 0 0 0-1.141-.317 5.071 5.071 0 0 1-2.82-.853l-.676-.45-.665.664c-.407.406-.97.639-1.544.639-.418 0-.804.12-1.141.317v-.317c0-2.2 1.792-3.99 3.993-3.99Zm-3.993 6.27c0-.42.23-.784.57-.982v1.963a1.135 1.135 0 0 1-.57-.98Zm3.993 4.56c.4 0 .783-.072 1.141-.199v.01l-1.14 1.52-1.142-1.52v-.01c.358.127.74.2 1.141.2Zm5.705 3.99h-2.282v-1.14h-1.14v1.14H4.785v-1.14h-1.14v1.14H1.362v-.7c0-.708.446-1.351 1.11-1.6l2.684-1.005 1.911 2.546 1.911-2.546 2.683 1.005c.665.249 1.111.892 1.111 1.6v.7ZM33.786 31.586c.86-.602 1.188-1.544 1.207-1.602l.111-.334-.25-.25a3.343 3.343 0 0 1-.973-2.348v-2.948c0-2.83-2.303-5.13-5.134-5.13a5.138 5.138 0 0 0-5.135 5.13v2.948c0 .874-.354 1.73-.973 2.35l-.25.248.111.335c.02.058.348 1.003 1.2 1.605a2.863 2.863 0 0 0-1.8 2.645v1.84h13.693v-1.84c0-1.165-.725-2.221-1.807-2.649ZM31.03 30.55v-.483c.432-.387.764-.88.955-1.44.34-.059.652-.189.923-.379.17.607.465 1.177.87 1.663-.216.39-.716 1.035-1.649 1.036l-.033.002-1.066-.399Zm-4.564 0-1.067.4-.074-.005c-.904 0-1.394-.644-1.608-1.033.405-.487.7-1.057.87-1.664.27.19.584.32.923.379.192.56.524 1.053.956 1.44v.483Zm5.705-3.183v-1.963c.34.198.57.561.57.981 0 .42-.23.784-.57.982Zm-3.423 2.438a2.283 2.283 0 0 1-2.282-2.28v-2.28h4.564v2.28a2.283 2.283 0 0 1-2.282 2.28Zm-3.423-2.438a1.137 1.137 0 0 1-.57-.982c0-.42.23-.784.57-.982v1.964Zm2.282 3.379c.357.127.74.2 1.14.2.401 0 .784-.074 1.142-.2v.2a1.142 1.142 0 0 1-2.282 0v-.2Zm1.14-10.632a3.997 3.997 0 0 1 3.994 3.99v.318a2.258 2.258 0 0 0-1.14-.317h-5.706c-.417 0-.804.12-1.14.317v-.317c0-2.2 1.791-3.99 3.993-3.99Zm5.706 14.822H32.17v-1.14h-1.141v1.14h-4.564v-1.14h-1.141v1.14h-2.282v-.7c0-.71.446-1.353 1.11-1.602l2.456-.92a2.279 2.279 0 0 0 2.139 1.511c.987 0 1.821-.632 2.139-1.51l1.02.382v.008l.018-.001 1.417.53c.664.249 1.11.892 1.11 1.602v.7ZM19.048 5.292c.315 0 .57.256.57.57h1.142c0-.742-.479-1.37-1.141-1.605V3.012h-1.141v1.245a1.708 1.708 0 0 0-1.141 1.605c0 .943.768 1.71 1.711 1.71a.571.571 0 1 1-.57.57h-1.141c0 .742.479 1.37 1.14 1.605v1.245h1.142V9.747a1.708 1.708 0 0 0 1.14-1.605c0-.943-.767-1.71-1.71-1.71a.571.571 0 0 1 0-1.14Z"/><path d="M32.74.731H17.907a2.855 2.855 0 0 0-2.852 2.85v6.841c0 1.572 1.28 2.85 2.852 2.85h3.849l6.99 3.812v-3.811h3.994a2.855 2.855 0 0 0 2.853-2.85V3.581c0-1.572-1.28-2.85-2.853-2.85Zm1.712 9.691c0 .943-.768 1.71-1.712 1.71h-5.134v3.03l-5.56-3.03h-4.139a1.713 1.713 0 0 1-1.711-1.71v-6.84c0-.943.768-1.71 1.711-1.71H32.74c.944 0 1.712.767 1.712 1.71v6.84ZM17.907 23.534H14.06l-6.99-3.811v3.81H3.074a2.855 2.855 0 0 0-2.853 2.85v6.841c0 1.572 1.28 2.85 2.853 2.85h14.832a2.855 2.855 0 0 0 2.853-2.85v-6.84c0-1.572-1.28-2.85-2.853-2.85Zm1.712 9.69c0 .943-.768 1.71-1.712 1.71H3.075a1.713 1.713 0 0 1-1.712-1.71v-6.84c0-.943.768-1.71 1.712-1.71h5.134v-3.03l5.56 3.03h4.138c.944 0 1.712.767 1.712 1.71v6.84Z"/><path d="M2.504 25.814h1.141v1.14h-1.14v-1.14ZM4.786 25.814h1.141v1.14h-1.14v-1.14ZM7.068 25.814h11.41v1.14H7.068v-1.14ZM2.504 28.094h15.974v1.14H2.504v-1.14ZM2.504 30.374h15.974v1.14H2.504v-1.14ZM17.337 32.654h1.14v1.14h-1.14v-1.14ZM2.504 32.654h13.692v1.14H2.504v-1.14ZM21.9 3.012h11.41v1.14H21.9v-1.14ZM21.9 5.292h11.41v1.14H21.9v-1.14ZM25.324 7.572h7.987v1.14h-7.987v-1.14ZM21.9 7.572h2.283v1.14H21.9v-1.14ZM21.9 9.852h9.129v1.14H21.9v-1.14ZM32.17 9.852h1.14v1.14h-1.14v-1.14Z"/></g><defs><clipPath id="a"><path fill="#fff" transform="translate(.222 .731)" d="M0 0h35.371v35.343H0z"/></clipPath></defs></svg>