<svg width="38" height="39" fill="none" xmlns="http://www.w3.org/2000/svg"><g clip-path="url(#a)" fill="#fff"><path d="M35.35 25.57h-.588V3.565a2.055 2.055 0 0 0-2.055-2.054h-27.6a2.058 2.058 0 0 0-2.054 2.054v22.003h-.588a1.762 1.762 0 0 0-1.761 1.76 1.76 1.76 0 0 0 1.761 1.76h8.522L7.72 37.084a.586.586 0 0 0 .544.808h3.523a.588.588 0 0 0 .544-.365l3.447-8.436h6.255l3.375 8.432a.588.588 0 0 0 .546.369h3.523a.587.587 0 0 0 .545-.805l-3.2-7.996h8.527a1.762 1.762 0 0 0 1.762-1.76 1.76 1.76 0 0 0-1.762-1.76ZM4.226 3.565a.88.88 0 0 1 .88-.88h27.6a.882.882 0 0 1 .88.88v22.003H4.227V3.566Zm7.165 33.151H9.139l3.118-7.627h2.254l-3.117 7.627Zm17.217 0h-2.257l-3.054-7.627h2.258l3.053 7.627Zm6.74-8.8H2.465a.588.588 0 1 1 0-1.174H35.35a.587.587 0 1 1 0 1.173Z"/><path d="m15.695 16.857-4.697-2.933a.586.586 0 0 0-.623 0l-4.697 2.933a.586.586 0 0 0-.276.498v6.454a.587.587 0 0 0 .587.587h9.395a.588.588 0 0 0 .587-.587v-6.454a.585.585 0 0 0-.276-.498Zm-4.421 6.365h-1.175v-2.347h1.175v2.347Zm3.523 0h-2.349v-2.934a.586.586 0 0 0-.587-.586H9.512a.587.587 0 0 0-.587.586v2.934H6.576V17.68l4.11-2.567 4.11 2.567v5.542ZM30.064 11.487H24.78v-5.28a.587.587 0 0 0-.587-.587 6.463 6.463 0 0 0-5.967 3.984 6.45 6.45 0 0 0 1.4 7.034 6.46 6.46 0 0 0 11.026-4.564.587.587 0 0 0-.587-.587Zm-5.872 5.868a5.287 5.287 0 0 1-5.28-4.987 5.278 5.278 0 0 1 4.693-5.543v5.249a.587.587 0 0 0 .587.587h5.253a5.287 5.287 0 0 1-5.253 4.694Z"/><path d="M25.954 3.86a.587.587 0 0 0-.587.586v5.868a.587.587 0 0 0 .587.586h5.872a.588.588 0 0 0 .587-.586 6.459 6.459 0 0 0-1.894-4.562 6.47 6.47 0 0 0-4.565-1.893Zm.587 5.867V5.065a5.297 5.297 0 0 1 4.665 4.662h-4.665ZM16.485 10.313h-5.799a.588.588 0 0 0-.587.587v1.76a.587.587 0 0 0 1.175 0v-1.173h5.211a.587.587 0 1 0 0-1.174Z"/></g><defs><clipPath id="a"><path fill="#fff" transform="translate(.117 .925)" d="M0 0h37.581v37.552H0z"/></clipPath></defs></svg>