<svg width="38" height="39" fill="none" xmlns="http://www.w3.org/2000/svg"><g clip-path="url(#a)" fill="#fff"><path d="M33.593 20.41c-1.727-1.719-3.723-.11-3.723-.11v-9.044a.55.55 0 0 0-1.1 0v9.817s-2.626 2.068-3.754 2.573V7.363c0-.757.616-1.372 1.374-1.372h1.006c.757 0 1.373.615 1.373 1.372v1.64a.55.55 0 1 0 1.101 0v-1.64a2.476 2.476 0 0 0-2.474-2.472H26.39a2.476 2.476 0 0 0-2.475 2.472v16.72a5.79 5.79 0 0 1-1.008.187V12.673a2.489 2.489 0 0 0-2.486-2.485h-.982a2.489 2.489 0 0 0-2.486 2.485v5.604l-1.008.535v-1.865a2.24 2.24 0 0 0-2.239-2.237h-1.477a2.24 2.24 0 0 0-2.239 2.237v5.024l-1.797.953-5.048 1.441a3.459 3.459 0 0 0-2.065 1.618 3.455 3.455 0 0 0-.346 2.6l.565 2.17a.55.55 0 0 0 1.065-.277l-.565-2.17a2.362 2.362 0 0 1 1.649-2.883l4.615-1.318 3.468 9.25c.232.62.196 2.387-1.639 3.038l-3.487.791a2.283 2.283 0 0 1-2.727-1.658l-.708-2.722a.55.55 0 0 0-1.066.277l.708 2.722a3.376 3.376 0 0 0 3.272 2.54c1.112 0 4.252-.878 4.252-.878a3.391 3.391 0 0 0 2.568-4.006l12.066-2.951a6.945 6.945 0 0 0 2.738-1.37l5.872-4.82c1.79-1.587.74-3.385.213-3.909ZM19.44 11.287h.982c.764 0 1.386.621 1.386 1.385v11.624l-3.474-.001c-.32-.003-.098-.214-.081-.228l1-.81c.934-.755 1.543-1.805 1.812-3.122a2.16 2.16 0 0 0-.832-2.182 2.164 2.164 0 0 0-2.178-.253v-5.028c0-.764.621-1.385 1.385-1.385Zm-8.348 5.659c0-.627.51-1.137 1.138-1.137h1.477c.627 0 1.138.51 1.138 1.137v2.449l-3.753 1.99v-4.44Zm21.59 6.52-5.872 4.821a5.83 5.83 0 0 1-2.301 1.151l-12.154 2.974-3.27-8.717 9.334-4.95a1.06 1.06 0 0 1 1.155.09c.344.256.498.66.412 1.08-.216 1.06-.696 1.897-1.426 2.487l-1 .81c-.41.332-.561.868-.385 1.365.176.496.63.818 1.158.818l4.011.002h.003c1.428 0 2.8-.434 3.968-1.255l4.483-3.15a1.551 1.551 0 0 1 2.009.185c.309.315.913 1.252-.125 2.29Z"/><path d="M9.423 33.707a2.17 2.17 0 0 0-2.169-2.167 2.17 2.17 0 0 0-2.169 2.167 2.17 2.17 0 0 0 2.169 2.167 2.17 2.17 0 0 0 2.169-2.167Zm-3.237 0a1.069 1.069 0 0 1 2.136 0 1.068 1.068 0 0 1-2.136 0ZM3.295 18.062l8.003-8.058 1.8.93c.645.334 1.43.22 1.952-.283l4.356-4.19s-.12 2.152 1.694 2.152c.933 0 1.693-.76 1.693-1.693V2.467C22.787 1.31 21.94.791 21.1.791h-4.402c-.934 0-1.694.76-1.694 1.692 0 1.86 1.895 1.692 1.895 1.692l-3.323 3.196-1.827-.943a1.688 1.688 0 0 0-1.98.31l-8.878 8.94a1.693 1.693 0 0 0 .01 2.393c.319.317 1.41.975 2.394-.009Zm-1.622-1.609 8.878-8.94c.114-.115.299-.316.693-.108L13.42 8.53a.55.55 0 0 0 .635-.093l4.591-4.415a.55.55 0 0 0-.382-.947h-1.566a.593.593 0 0 1 0-1.184H21.1c.162 0 .592 0 .592.589V6.92a.593.593 0 0 1-1.185 0V5.168a.55.55 0 0 0-.932-.396l-5.288 5.086a.593.593 0 0 1-.683.1l-2.16-1.116a.551.551 0 0 0-.643.1l-8.287 8.345c-.361.361-.726.114-.838.003a.593.593 0 0 1-.003-.837Z"/></g><defs><clipPath id="a"><path fill="#fff" transform="translate(.327 .791)" d="M0 0h37.581v37.552H0z"/></clipPath></defs></svg>