<svg width="31" height="31" fill="none" xmlns="http://www.w3.org/2000/svg"><path d="M3.595 17.095a.354.354 0 0 0 .35.356l9.413.07a.354.354 0 0 0 .005-.707l-9.412-.07a.354.354 0 0 0-.356.35ZM12.683 19.99l-8.756-.066a.354.354 0 0 0-.005.708l8.755.065a.354.354 0 0 0 .006-.707ZM12.659 23.171l-8.756-.066a.354.354 0 1 0-.005.707l8.756.066a.354.354 0 1 0 .005-.707ZM15.339 6.261l5.342.04a.354.354 0 1 0 .005-.707l-5.342-.04a.354.354 0 1 0-.005.707ZM15.315 9.442l5.342.04a.354.354 0 1 0 .006-.707l-5.343-.04a.354.354 0 1 0-.005.707ZM8.719 7.105l2.991.023a.198.198 0 0 0 .003-.397L8.722 6.71a.198.198 0 0 0-.003.396ZM15.242 26.371l-11.363-.085a.354.354 0 1 0-.005.707l11.362.085a.354.354 0 1 0 .005-.707ZM28.26 21.954h.024a.353.353 0 0 0 .355-.327 8.174 8.174 0 0 0-.972-4.523.354.354 0 0 0-.622.338 7.471 7.471 0 0 1 .889 4.133.353.353 0 0 0 .326.379ZM25.811 15.275a.353.353 0 0 0-.004.5c.116.117.226.236.331.358a.352.352 0 0 0 .499.038.353.353 0 0 0 .037-.498 7.888 7.888 0 0 0-.363-.394.354.354 0 0 0-.5-.004ZM17.585 18.088a4.112 4.112 0 0 0-.046 5.824 4.12 4.12 0 0 0 5.873-5.78 4.121 4.121 0 0 0-5.827-.044Zm5.287 5.363a3.42 3.42 0 0 1-4.828-.035 3.414 3.414 0 0 1 4.865-4.788 3.413 3.413 0 0 1-.037 4.823Z" fill="#fff"/><path d="M29.075 26.142c-.481-.488-1.827-1.411-3.097-1.97 1.378-2.405 1.06-5.53-.98-7.6a6.334 6.334 0 0 0-.673-.585l.11-14.563a1.17 1.17 0 0 0-1.16-1.177L1.527.083A1.17 1.17 0 0 0 .35 1.243l-.21 27.83a1.17 1.17 0 0 0 1.161 1.177l21.746.164a1.17 1.17 0 0 0 1.178-1.16l.01-1.315c.448.773.927 1.442 1.234 1.753a2.53 2.53 0 0 0 3.606-3.55Zm-4.64-1.107c-2.185 2.15-5.766 2.186-7.978-.058-2.185-2.216-2.144-5.8.064-7.968a5.643 5.643 0 0 1 7.974.058c2.209 2.243 2.122 5.82-.06 7.968Zm-.917 4.214a.462.462 0 0 1-.465.458l-21.747-.164a.462.462 0 0 1-.458-.464l.21-27.83A.462.462 0 0 1 1.523.79l21.746.163c.255.002.46.21.458.465l-.106 14.092a6.341 6.341 0 0 0-7.521.925 6.329 6.329 0 0 0-.147 9.038 6.351 6.351 0 0 0 7.585 1.103l-.02 2.672Zm5.032-.034a1.825 1.825 0 0 1-2.577-.02c-.416-.421-1.221-1.634-1.726-2.783l.002-.293c.234-.172.477-.376.682-.578.237-.233.529-.582.665-.768 1.203.511 2.533 1.417 2.975 1.865.705.715.695 1.871-.021 2.577Z" fill="#fff"/><path d="m6.619 3.374.102-.09a.353.353 0 1 0-.47-.53l-.102.091a.353.353 0 1 0 .47.53ZM4.148 5.565l1.598-1.42a.354.354 0 0 0-.47-.528l-1.598 1.42a.354.354 0 0 0 .47.528ZM3.838 7.36a.514.514 0 0 0-.141.57.515.515 0 0 0 .481.335l.54.004-.035 4.585-.503-.003a.354.354 0 1 0-.006.707c-.047 0 .507.005 8.466.063a.354.354 0 0 0 .005-.707l-.5-.003.034-4.586.536.004a.518.518 0 0 0 .355-.9L8.83 3.547a.518.518 0 0 0-.695-.005L3.838 7.36Zm5.652 5.53-2.155-.016.015-2.027a1.079 1.079 0 0 1 2.156.016l-.016 2.028Zm.708.006.015-2.027A1.787 1.787 0 0 0 8.441 9.07a1.787 1.787 0 0 0-1.799 1.77l-.015 2.028-1.237-.01.035-4.583 6.047.046-.035 4.583-1.24-.01Zm-1.72-8.713 3.75 3.436-7.553-.057 3.803-3.379Z" fill="#fff"/></svg>