<svg width="102" height="102" fill="none" xmlns="http://www.w3.org/2000/svg"><g clip-path="url(#a)" fill="#001E54"><path d="M92.915 17.613C78.88 13.768 64.764 7.78 52.09.298a2.145 2.145 0 0 0-2.181 0C36.87 7.995 23.518 13.658 9.085 17.613a2.145 2.145 0 0 0-1.578 2.07v21.923c0 22.576 10.415 37.52 19.152 46.08C36.065 96.903 47.022 102 51.001 102c3.977 0 14.934-5.097 24.34-14.314 8.738-8.56 19.152-23.504 19.152-46.08V19.682c0-.966-.646-1.814-1.578-2.069Zm-2.713 23.993c0 21.085-9.714 35.03-17.864 43.015-9.25 9.063-19.14 13.088-21.337 13.088-2.198 0-12.089-4.025-21.339-13.088-8.15-7.985-17.864-21.93-17.864-43.015V21.31c13.802-3.918 26.655-9.387 39.203-16.68 12.235 7.1 25.73 12.84 39.201 16.68v20.295Z"/><path d="M31.982 21.071a2.145 2.145 0 0 0-2.783-1.21c-3.833 1.51-7.767 2.9-11.693 4.132a2.146 2.146 0 0 0-1.503 2.048v8.285a2.146 2.146 0 0 0 4.29 0V27.61c3.523-1.14 7.041-2.4 10.48-3.755a2.145 2.145 0 0 0 1.21-2.783ZM36.058 21.478c.288 0 .58-.058.86-.18l.04-.017a2.14 2.14 0 0 0 1.099-2.825 2.15 2.15 0 0 0-2.832-1.101l-.034.015a2.14 2.14 0 0 0-1.103 2.823 2.147 2.147 0 0 0 1.97 1.285ZM76.564 69.185a2.146 2.146 0 0 0-2.97.623 52.218 52.218 0 0 1-6.166 7.701 54.798 54.798 0 0 1-6.154 5.476 2.146 2.146 0 0 0 2.602 3.412 59.145 59.145 0 0 0 6.637-5.905 56.46 56.46 0 0 0 6.674-8.337 2.145 2.145 0 0 0-.623-2.97ZM56.29 86.35l-.122.072a2.146 2.146 0 0 0 2.15 3.714l.141-.084a2.145 2.145 0 1 0-2.168-3.702ZM36.375 46.621a6.93 6.93 0 0 0-4.933-2.043 6.934 6.934 0 0 0-4.934 2.043c-2.72 2.72-2.72 7.147 0 9.867l12.67 12.67A6.933 6.933 0 0 0 44.11 71.2a6.931 6.931 0 0 0 4.934-2.043L75.493 42.71c2.72-2.722 2.72-7.148 0-9.867a6.93 6.93 0 0 0-4.934-2.043 6.932 6.932 0 0 0-4.933 2.043L44.11 54.356l-7.736-7.735ZM68.66 35.876a2.669 2.669 0 0 1 1.9-.786c.717 0 1.392.28 1.899.786a2.689 2.689 0 0 1 0 3.799L46.01 66.123a2.668 2.668 0 0 1-1.899.786 2.67 2.67 0 0 1-1.9-.786L29.544 53.454a2.689 2.689 0 0 1 0-3.798 2.67 2.67 0 0 1 1.899-.787c.718 0 1.392.28 1.899.787l9.253 9.252a2.147 2.147 0 0 0 3.034 0L68.66 35.876Z"/></g><defs><clipPath id="a"><path fill="#fff" d="M0 0h102v102H0z"/></clipPath></defs></svg>