<svg width="102" height="99" fill="none" xmlns="http://www.w3.org/2000/svg"><path d="M5.455 60.944a6.55 6.55 0 0 0 1.53 2.383 6.54 6.54 0 0 0 4.637 1.931c1.802 0 3.445-.74 4.636-1.93a6.549 6.549 0 0 0 1.931-4.637v-3.654a7.527 7.527 0 0 1-3.546-.576c-.085.412-.18.813-.305 1.209-.469 1.524-1.253 2.913-2.496 3.913-1.26 1.017-2.93 1.604-5.144 1.49a11.202 11.202 0 0 1-1.243-.129Zm38.706-9.786h13.136v-4.129H47.183a3.02 3.02 0 0 0-2.135.893 3 3 0 0 0-.887 2.129v1.107Zm13.136 2.987H44.16v4.546a6.55 6.55 0 0 0 1.931 4.636 6.55 6.55 0 0 0 4.637 1.931c1.807 0 3.45-.74 4.636-1.931a6.55 6.55 0 0 0 1.931-4.636v-4.546Zm40.942 9.973c.802.423 1.508 1 2.089 1.683A6.997 6.997 0 0 1 102 70.34v10.074a1.494 1.494 0 0 1-2.987 0V70.341c0-.994-.362-1.909-.96-2.615a4.104 4.104 0 0 0-2.067-1.31 9.461 9.461 0 0 1-5.602 1.83 9.493 9.493 0 0 1-5.772-1.948 2.734 2.734 0 0 0-1.898 1.079L74.69 78.003a1.5 1.5 0 0 1-1.191.599H63.215a2.744 2.744 0 0 0-2.756 2.75c0 .762.31 1.451.808 1.948a2.748 2.748 0 0 0 1.948.808h12.282c.492 0 .87-.051 1.34-.288.869-.435 1.682-1.756 2.275-2.547l5.314-7.03a1.488 1.488 0 0 1 2.09-.294c.654.496.784 1.434.287 2.089l-5.054 6.697V95.76h17.264V87.18a1.494 1.494 0 0 1 2.987 0v10.075a1.49 1.49 0 0 1-1.491 1.49H1.497A1.494 1.494 0 0 1 0 97.256V87.18a1.494 1.494 0 0 1 2.987 0v8.579h17.27V82.736l-5.06-6.697a1.49 1.49 0 0 1 .294-2.09 1.489 1.489 0 0 1 2.09.294l5.194 6.879c.475.626.95 1.258 1.423 1.891.271.356.604.627.972.808.412.209.796.288 1.248.288H38.79c.757 0 1.445-.311 1.948-.808a2.743 2.743 0 0 0 .802-1.948c0-.757-.305-1.446-.802-1.948a2.763 2.763 0 0 0-1.948-.802H28.5c-.451 0-.897-.209-1.19-.599l-8.025-10.628a2.762 2.762 0 0 0-1.898-1.078 9.5 9.5 0 0 1-5.766 1.948 9.511 9.511 0 0 1-5.607-1.824 4.095 4.095 0 0 0-2.045 1.276 4.045 4.045 0 0 0-.982 2.643v10.075a1.494 1.494 0 0 1-2.987 0V70.34a7.02 7.02 0 0 1 1.716-4.591 7.188 7.188 0 0 1 2.05-1.632 9.476 9.476 0 0 1-1.7-5.427v-8.64c0-1.655.672-3.157 1.762-4.247a6 6 0 0 1 4.241-1.762h7.098c1.655 0 3.157.678 4.247 1.762a5.988 5.988 0 0 1 1.762 4.247v8.64c0 1.914-.57 3.705-1.547 5.201.807.407 1.49.966 2.038 1.689l7.573 10.029h5.98v-6.06c0-1.716.91-3.27 2.384-4.585 1.14-1.016 2.643-1.903 4.303-2.603a9.484 9.484 0 0 1-.734-3.671v-8.64a6.01 6.01 0 0 1 1.762-4.247 6.013 6.013 0 0 1 4.247-1.762h11.61a1.5 1.5 0 0 1 1.497 1.497V58.69c0 1.225-.237 2.4-.66 3.484 1.784.7 3.399 1.604 4.619 2.654 1.564 1.345 2.53 2.948 2.53 4.722v6.059h5.98l7.573-10.03a5.72 5.72 0 0 1 2.044-1.682 9.483 9.483 0 0 1-1.553-5.207v-8.64a6.013 6.013 0 0 1 6.009-6.008h7.098a6.013 6.013 0 0 1 6.008 6.008v8.64a9.52 9.52 0 0 1-1.699 5.427Zm-1.694-3.174c-.43.068-.847.113-1.243.13-2.208.113-3.88-.475-5.139-1.491-1.248-1-2.033-2.389-2.501-3.913a12.22 12.22 0 0 1-.3-1.209c-.954.395-2.162.695-3.552.576v3.654c0 1.801.74 3.445 1.932 4.636a6.553 6.553 0 0 0 4.642 1.931 6.55 6.55 0 0 0 4.636-1.93 6.607 6.607 0 0 0 1.525-2.384Zm-12.735-8.9c1.994.282 3.45-.875 3.71-1.101.294-.249.57-.401.972-.418a1.486 1.486 0 0 1 1.558 1.417c.051.972.187 1.954.463 2.852.305 1 .785 1.88 1.514 2.468.717.576 1.728.904 3.134.836a10.759 10.759 0 0 0 1.79-.26V50.05c0-.83-.344-1.58-.892-2.129a3.006 3.006 0 0 0-2.129-.892h-7.099c-.83 0-1.58.345-2.129.892a3.006 3.006 0 0 0-.892 2.13v1.993Zm-65.62 0v-1.993a3 3 0 0 0-.887-2.13 3.019 3.019 0 0 0-2.135-.892H8.07c-.825 0-1.581.345-2.13.892a3.001 3.001 0 0 0-.886 2.13v7.787c.65.147 1.243.231 1.785.26 1.406.068 2.417-.26 3.134-.836.728-.587 1.208-1.468 1.52-2.468.276-.898.411-1.88.457-2.851a1.49 1.49 0 0 1 1.558-1.418c.384.017.678.158.96.407.21.186 1.689 1.4 3.722 1.112Zm25.316 12.887c-1.559.604-2.936 1.372-3.919 2.253-.853.757-1.378 1.57-1.378 2.367v6.059h.582c1.581 0 3.021.643 4.06 1.683a5.723 5.723 0 0 1 1.683 4.06c0 1-.26 1.937-.706 2.756h14.344a5.74 5.74 0 0 1-.7-2.756c0-1.587.643-3.021 1.683-4.06a5.723 5.723 0 0 1 4.06-1.683h.576v-6.06c0-.824-.565-1.671-1.48-2.456-1.073-.92-2.563-1.717-4.224-2.321a9.528 9.528 0 0 1-7.358 3.473 9.515 9.515 0 0 1-6.748-2.807 10.08 10.08 0 0 1-.475-.508ZM12.452 11.063a1.494 1.494 0 0 1 0-2.988h27.66a1.494 1.494 0 0 1 0 2.987h-27.66Zm0 15.721c-.824 0-1.49-.672-1.49-1.496 0-.825.666-1.497 1.49-1.497h13.83a1.5 1.5 0 0 1 1.497 1.497 1.5 1.5 0 0 1-1.497 1.496h-13.83Zm0-7.86a1.494 1.494 0 0 1 0-2.988h27.66a1.495 1.495 0 0 1 0 2.987h-27.66Zm29.19 15.93a4.13 4.13 0 0 0 .966 1.525 4.176 4.176 0 0 0 2.976 1.236h8.782c.824 0 1.49.667 1.49 1.497a1.49 1.49 0 0 1-1.49 1.49h-8.782a7.137 7.137 0 0 1-5.088-2.122 7.261 7.261 0 0 1-1.954-3.626H17.71l-6.766 6.765c-.27.272-.643.44-1.061.44a1.494 1.494 0 0 1-1.497-1.49V34.73a9.003 9.003 0 0 1-4.901-2.536 9.01 9.01 0 0 1-2.66-6.398V9.058a9.029 9.029 0 0 1 2.66-6.398A9.032 9.032 0 0 1 9.883 0h32.799a9.032 9.032 0 0 1 6.398 2.66 9.028 9.028 0 0 1 2.66 6.398v2.767h25.379c1.982 0 3.778.808 5.082 2.112a7.167 7.167 0 0 1 2.112 5.083v14.389a7.167 7.167 0 0 1-2.112 5.082 7.202 7.202 0 0 1-3.591 1.954v5.873c0 .379-.141.763-.435 1.056a1.497 1.497 0 0 1-2.112 0l-6.771-6.77h-8.16a1.494 1.494 0 1 1 0-2.988h8.78c.419 0 .791.17 1.063.446l4.647 4.648v-3.598c0-.83.672-1.496 1.497-1.496a4.202 4.202 0 0 0 2.97-1.237 4.192 4.192 0 0 0 1.237-2.97v-14.39a4.192 4.192 0 0 0-1.237-2.97 4.202 4.202 0 0 0-2.97-1.236h-25.38v10.983a9.009 9.009 0 0 1-2.66 6.399 9.01 9.01 0 0 1-6.397 2.66h-1.04Zm-24.554-2.987h25.594a6.045 6.045 0 0 0 4.286-1.785 6.055 6.055 0 0 0 1.784-4.286V9.058a6.055 6.055 0 0 0-1.784-4.286 6.044 6.044 0 0 0-4.286-1.785h-32.8a6.045 6.045 0 0 0-4.286 1.785 6.054 6.054 0 0 0-1.784 4.286v16.738c0 1.666.683 3.185 1.784 4.287a6.045 6.045 0 0 0 4.287 1.784c.824 0 1.49.672 1.49 1.497v3.597l4.66-4.653c.293-.294.671-.441 1.055-.441Zm61.674 55.229H23.244v8.662h55.518v-8.662Z" fill="#001E54"/></svg>